<?xml version="1.0" standalone="no"?>
<!DOCTYPE svg PUBLIC "-//W3C//DTD SVG 1.1//EN"
  "http://www.w3.org/Graphics/SVG/1.1/DTD/svg11.dtd">
<!-- Created with matplotlib (http://matplotlib.sourceforge.net/) -->
<svg width="576pt" height="432pt" viewBox="0 0 576 432"
   xmlns="http://www.w3.org/2000/svg"
   xmlns:xlink="http://www.w3.org/1999/xlink"
   version="1.1"
   id="svg1">
<filter id="colorAdd"><feComposite in="SourceGraphic" in2="BackgroundImage" operator="arithmetic" k2="1" k3="1"/></filter>
<g id="figure1">
<g id="patch1">
<path style="fill: #ffffff; stroke: #ffffff; stroke-width: 1.000000; stroke-linejoin: round; stroke-linecap: square;  opacity: 1.000000"  d="M0.000000 432.000000L576.000000 432.000000L576.000000 0.000000
L0.000000 0.000000z"/>
</g>
<g id="axes1">
<g id="patch2">
<path style="fill: #ffffff; opacity: 1.000000"  d="M72.000000 388.800000L518.400000 388.800000L518.400000 43.200000
L72.000000 43.200000z"/>
</g>
<g id="line2d1">
<defs>
  <clipPath id="p50431ccdcb28178602d99d9270004dde">
<rect x="72.000000" y="43.200000" width="446.400000" height="345.600000"/>
  </clipPath>
</defs><path style="fill: none; stroke: #0000ff; stroke-width: 2.000000; stroke-linejoin: round; stroke-linecap: square;  opacity: 1.000000" clip-path="url(#p50431ccdcb28178602d99d9270004dde)" d="M72.000000 43.200000L76.509091 43.200000L81.018182 43.200000
L85.527273 43.200000L90.036364 47.265882L94.545455 55.397647
L99.054545 71.661176L103.563636 91.990588L108.072727 96.056471
L112.581818 100.122353L117.090909 112.320000L121.600000 116.385882
L126.109091 120.451765L130.618182 120.451765L135.127273 124.517647
L139.636364 128.583529L144.145455 128.583529L148.654545 136.715294
L153.163636 152.978824L157.672727 152.978824L162.181818 165.176471
L166.690909 165.176471L171.200000 185.505882L175.709091 193.637647
L180.218182 213.967059L184.727273 218.032941L189.236364 218.032941
L193.745455 218.032941L198.254545 218.032941L202.763636 242.428235
L207.272727 242.428235L211.781818 242.428235L216.290909 242.428235
L220.800000 246.494118L225.309091 250.560000L229.818182 258.691765
L234.327273 291.218824L238.836364 291.218824L243.345455 299.350588
L247.854545 340.009412L252.363636 340.009412L256.872727 340.009412
L261.381818 340.009412L265.890909 340.009412L270.400000 340.009412
L274.909091 340.009412L279.418182 340.009412L283.927273 340.009412
L288.436364 340.009412L292.945455 340.009412L297.454545 352.207059
L301.963636 352.207059L306.472727 352.207059L310.981818 352.207059
L315.490909 352.207059L320.000000 352.207059L324.509091 352.207059
L329.018182 352.207059L333.527273 352.207059L338.036364 352.207059
L342.545455 352.207059L347.054545 352.207059L351.563636 352.207059
L356.072727 352.207059L360.581818 352.207059L365.090909 352.207059
L369.600000 356.272941L374.109091 356.272941L378.618182 356.272941
L383.127273 356.272941L387.636364 356.272941L392.145455 356.272941
L396.654545 356.272941L401.163636 356.272941L405.672727 356.272941
L410.181818 360.338824L414.690909 360.338824L419.200000 360.338824
L423.709091 360.338824L428.218182 360.338824L432.727273 360.338824
L437.236364 360.338824L441.745455 360.338824L446.254545 360.338824
L450.763636 360.338824L455.272727 360.338824L459.781818 360.338824
L464.290909 360.338824L468.800000 360.338824L473.309091 360.338824
L477.818182 360.338824L482.327273 360.338824L486.836364 360.338824
L491.345455 360.338824L495.854545 360.338824L500.363636 360.338824
L504.872727 360.338824L509.381818 360.338824L513.890909 360.338824
L518.400000 388.800000"/>
</g>
<g id="line2d2">
<path style="fill: none; stroke: #008000; stroke-width: 2.000000; stroke-linejoin: round; stroke-linecap: square;  opacity: 1.000000" clip-path="url(#p50431ccdcb28178602d99d9270004dde)" d="M72.000000 43.200000L76.509091 43.200000L81.018182 43.200000
L85.527273 43.200000L90.036364 43.200000L94.545455 51.331765
L99.054545 51.331765L103.563636 51.331765L108.072727 51.331765
L112.581818 55.397647L117.090909 59.463529L121.600000 59.463529
L126.109091 59.463529L130.618182 59.463529L135.127273 59.463529
L139.636364 63.529412L144.145455 79.792941L148.654545 100.122353
L153.163636 100.122353L157.672727 100.122353L162.181818 108.254118
L166.690909 108.254118L171.200000 112.320000L175.709091 112.320000
L180.218182 116.385882L184.727273 173.308235L189.236364 193.637647
L193.745455 197.703529L198.254545 209.901176L202.763636 209.901176
L207.272727 209.901176L211.781818 250.560000L216.290909 262.757647
L220.800000 262.757647L225.309091 266.823529L229.818182 274.955294
L234.327273 295.284706L238.836364 295.284706L243.345455 303.416471
L247.854545 348.141176L252.363636 348.141176L256.872727 348.141176
L261.381818 348.141176L265.890909 348.141176L270.400000 348.141176
L274.909091 348.141176L279.418182 356.272941L283.927273 356.272941
L288.436364 356.272941L292.945455 356.272941L297.454545 368.470588
L301.963636 368.470588L306.472727 368.470588L310.981818 368.470588
L315.490909 368.470588L320.000000 368.470588L324.509091 368.470588
L329.018182 368.470588L333.527273 368.470588L338.036364 368.470588
L342.545455 368.470588L347.054545 368.470588L351.563636 368.470588
L356.072727 368.470588L360.581818 368.470588L365.090909 368.470588
L369.600000 376.602353L374.109091 376.602353L378.618182 376.602353
L383.127273 376.602353L387.636364 376.602353L392.145455 376.602353
L396.654545 376.602353L401.163636 376.602353L405.672727 376.602353
L410.181818 376.602353L414.690909 376.602353L419.200000 376.602353
L423.709091 376.602353L428.218182 376.602353L432.727273 376.602353
L437.236364 376.602353L441.745455 376.602353L446.254545 376.602353
L450.763636 376.602353L455.272727 376.602353L459.781818 376.602353
L464.290909 376.602353L468.800000 376.602353L473.309091 376.602353
L477.818182 376.602353L482.327273 376.602353L486.836364 376.602353
L491.345455 376.602353L495.854545 376.602353L500.363636 376.602353
L504.872727 376.602353L509.381818 376.602353L513.890909 376.602353
L518.400000 388.800000"/>
</g>
<g id="line2d3">
<path style="fill: none; stroke: #ff0000; stroke-width: 2.000000; stroke-linejoin: round; stroke-linecap: square;  opacity: 1.000000" clip-path="url(#p50431ccdcb28178602d99d9270004dde)" d="M72.000000 181.440000L76.509091 380.668235L81.018182 388.800000
L85.527273 388.800000L90.036364 388.800000L94.545455 388.800000
L99.054545 388.800000L103.563636 388.800000L108.072727 388.800000
L112.581818 388.800000L117.090909 388.800000L121.600000 388.800000
L126.109091 388.800000L130.618182 388.800000L135.127273 388.800000
L139.636364 388.800000L144.145455 388.800000L148.654545 388.800000
L153.163636 388.800000L157.672727 388.800000L162.181818 388.800000
L166.690909 388.800000L171.200000 388.800000L175.709091 388.800000
L180.218182 388.800000L184.727273 388.800000L189.236364 388.800000
L193.745455 388.800000L198.254545 388.800000L202.763636 388.800000
L207.272727 388.800000L211.781818 388.800000L216.290909 388.800000
L220.800000 388.800000L225.309091 388.800000L229.818182 388.800000
L234.327273 388.800000L238.836364 388.800000L243.345455 388.800000
L247.854545 388.800000L252.363636 388.800000L256.872727 388.800000
L261.381818 388.800000L265.890909 388.800000L270.400000 388.800000
L274.909091 388.800000L279.418182 388.800000L283.927273 388.800000
L288.436364 388.800000L292.945455 388.800000L297.454545 388.800000
L301.963636 388.800000L306.472727 388.800000L310.981818 388.800000
L315.490909 388.800000L320.000000 388.800000L324.509091 388.800000
L329.018182 388.800000L333.527273 388.800000L338.036364 388.800000
L342.545455 388.800000L347.054545 388.800000L351.563636 388.800000
L356.072727 388.800000L360.581818 388.800000L365.090909 388.800000
L369.600000 388.800000L374.109091 388.800000L378.618182 388.800000
L383.127273 388.800000L387.636364 388.800000L392.145455 388.800000
L396.654545 388.800000L401.163636 388.800000L405.672727 388.800000
L410.181818 388.800000L414.690909 388.800000L419.200000 388.800000
L423.709091 388.800000L428.218182 388.800000L432.727273 388.800000
L437.236364 388.800000L441.745455 388.800000L446.254545 388.800000
L450.763636 388.800000L455.272727 388.800000L459.781818 388.800000
L464.290909 388.800000L468.800000 388.800000L473.309091 388.800000
L477.818182 388.800000L482.327273 388.800000L486.836364 388.800000
L491.345455 388.800000L495.854545 388.800000L500.363636 388.800000
L504.872727 388.800000L509.381818 388.800000L513.890909 388.800000
L518.400000 388.800000"/>
</g>
<g id="line2d4">
<path style="fill: none; stroke: #00bfbf; stroke-width: 2.000000; stroke-linejoin: round; stroke-linecap: square;  opacity: 1.000000" clip-path="url(#p50431ccdcb28178602d99d9270004dde)" d="M72.000000 43.200000L76.509091 43.200000L81.018182 43.200000
L85.527273 43.200000L90.036364 43.200000L94.545455 51.331765
L99.054545 51.331765L103.563636 55.397647L108.072727 55.397647
L112.581818 55.397647L117.090909 55.397647L121.600000 59.463529
L126.109091 63.529412L130.618182 71.661176L135.127273 71.661176
L139.636364 71.661176L144.145455 79.792941L148.654545 79.792941
L153.163636 96.056471L157.672727 124.517647L162.181818 128.583529
L166.690909 128.583529L171.200000 128.583529L175.709091 189.571765
L180.218182 213.967059L184.727273 213.967059L189.236364 222.098824
L193.745455 222.098824L198.254545 238.362353L202.763636 238.362353
L207.272727 262.757647L211.781818 262.757647L216.290909 283.087059
L220.800000 291.218824L225.309091 291.218824L229.818182 291.218824
L234.327273 331.877647L238.836364 331.877647L243.345455 331.877647
L247.854545 340.009412L252.363636 340.009412L256.872727 340.009412
L261.381818 340.009412L265.890909 340.009412L270.400000 348.141176
L274.909091 348.141176L279.418182 356.272941L283.927273 356.272941
L288.436364 356.272941L292.945455 356.272941L297.454545 356.272941
L301.963636 356.272941L306.472727 356.272941L310.981818 356.272941
L315.490909 356.272941L320.000000 356.272941L324.509091 356.272941
L329.018182 356.272941L333.527273 356.272941L338.036364 356.272941
L342.545455 356.272941L347.054545 356.272941L351.563636 356.272941
L356.072727 356.272941L360.581818 356.272941L365.090909 356.272941
L369.600000 388.800000L374.109091 388.800000L378.618182 388.800000
L383.127273 388.800000L387.636364 388.800000L392.145455 388.800000
L396.654545 388.800000L401.163636 388.800000L405.672727 388.800000
L410.181818 388.800000L414.690909 388.800000L419.200000 388.800000
L423.709091 388.800000L428.218182 388.800000L432.727273 388.800000
L437.236364 388.800000L441.745455 388.800000L446.254545 388.800000
L450.763636 388.800000L455.272727 388.800000L459.781818 388.800000
L464.290909 388.800000L468.800000 388.800000L473.309091 388.800000
L477.818182 388.800000L482.327273 388.800000L486.836364 388.800000
L491.345455 388.800000L495.854545 388.800000L500.363636 388.800000
L504.872727 388.800000L509.381818 388.800000L513.890909 388.800000
L518.400000 388.800000"/>
</g>
<g id="line2d5">
<path style="fill: none; stroke: #bf00bf; stroke-width: 2.000000; stroke-linejoin: round; stroke-linecap: square;  opacity: 1.000000" clip-path="url(#p50431ccdcb28178602d99d9270004dde)" d="M72.000000 181.440000L76.509091 380.668235L81.018182 388.800000
L85.527273 388.800000L90.036364 388.800000L94.545455 388.800000
L99.054545 388.800000L103.563636 388.800000L108.072727 388.800000
L112.581818 388.800000L117.090909 388.800000L121.600000 388.800000
L126.109091 388.800000L130.618182 388.800000L135.127273 388.800000
L139.636364 388.800000L144.145455 388.800000L148.654545 388.800000
L153.163636 388.800000L157.672727 388.800000L162.181818 388.800000
L166.690909 388.800000L171.200000 388.800000L175.709091 388.800000
L180.218182 388.800000L184.727273 388.800000L189.236364 388.800000
L193.745455 388.800000L198.254545 388.800000L202.763636 388.800000
L207.272727 388.800000L211.781818 388.800000L216.290909 388.800000
L220.800000 388.800000L225.309091 388.800000L229.818182 388.800000
L234.327273 388.800000L238.836364 388.800000L243.345455 388.800000
L247.854545 388.800000L252.363636 388.800000L256.872727 388.800000
L261.381818 388.800000L265.890909 388.800000L270.400000 388.800000
L274.909091 388.800000L279.418182 388.800000L283.927273 388.800000
L288.436364 388.800000L292.945455 388.800000L297.454545 388.800000
L301.963636 388.800000L306.472727 388.800000L310.981818 388.800000
L315.490909 388.800000L320.000000 388.800000L324.509091 388.800000
L329.018182 388.800000L333.527273 388.800000L338.036364 388.800000
L342.545455 388.800000L347.054545 388.800000L351.563636 388.800000
L356.072727 388.800000L360.581818 388.800000L365.090909 388.800000
L369.600000 388.800000L374.109091 388.800000L378.618182 388.800000
L383.127273 388.800000L387.636364 388.800000L392.145455 388.800000
L396.654545 388.800000L401.163636 388.800000L405.672727 388.800000
L410.181818 388.800000L414.690909 388.800000L419.200000 388.800000
L423.709091 388.800000L428.218182 388.800000L432.727273 388.800000
L437.236364 388.800000L441.745455 388.800000L446.254545 388.800000
L450.763636 388.800000L455.272727 388.800000L459.781818 388.800000
L464.290909 388.800000L468.800000 388.800000L473.309091 388.800000
L477.818182 388.800000L482.327273 388.800000L486.836364 388.800000
L491.345455 388.800000L495.854545 388.800000L500.363636 388.800000
L504.872727 388.800000L509.381818 388.800000L513.890909 388.800000
L518.400000 388.800000"/>
</g>
<g id="line2d6">
<path style="fill: none; stroke: #bfbf00; stroke-width: 2.000000; stroke-linejoin: round; stroke-linecap: square;  opacity: 1.000000" clip-path="url(#p50431ccdcb28178602d99d9270004dde)" d="M72.000000 43.200000L76.509091 43.200000L81.018182 43.200000
L85.527273 43.200000L90.036364 43.200000L94.545455 51.331765
L99.054545 55.397647L103.563636 55.397647L108.072727 55.397647
L112.581818 59.463529L117.090909 67.595294L121.600000 75.727059
L126.109091 75.727059L130.618182 79.792941L135.127273 96.056471
L139.636364 96.056471L144.145455 112.320000L148.654545 112.320000
L153.163636 112.320000L157.672727 120.451765L162.181818 128.583529
L166.690909 128.583529L171.200000 128.583529L175.709091 144.847059
L180.218182 161.110588L184.727273 161.110588L189.236364 161.110588
L193.745455 165.176471L198.254545 165.176471L202.763636 222.098824
L207.272727 222.098824L211.781818 238.362353L216.290909 279.021176
L220.800000 291.218824L225.309091 291.218824L229.818182 291.218824
L234.327273 323.745882L238.836364 323.745882L243.345455 323.745882
L247.854545 356.272941L252.363636 356.272941L256.872727 356.272941
L261.381818 356.272941L265.890909 356.272941L270.400000 356.272941
L274.909091 356.272941L279.418182 356.272941L283.927273 356.272941
L288.436364 356.272941L292.945455 356.272941L297.454545 356.272941
L301.963636 356.272941L306.472727 356.272941L310.981818 356.272941
L315.490909 356.272941L320.000000 364.404706L324.509091 364.404706
L329.018182 364.404706L333.527273 364.404706L338.036364 364.404706
L342.545455 364.404706L347.054545 364.404706L351.563636 364.404706
L356.072727 364.404706L360.581818 364.404706L365.090909 364.404706
L369.600000 368.470588L374.109091 368.470588L378.618182 368.470588
L383.127273 368.470588L387.636364 368.470588L392.145455 368.470588
L396.654545 368.470588L401.163636 368.470588L405.672727 368.470588
L410.181818 372.536471L414.690909 372.536471L419.200000 372.536471
L423.709091 372.536471L428.218182 372.536471L432.727273 372.536471
L437.236364 372.536471L441.745455 372.536471L446.254545 372.536471
L450.763636 372.536471L455.272727 372.536471L459.781818 372.536471
L464.290909 372.536471L468.800000 372.536471L473.309091 372.536471
L477.818182 372.536471L482.327273 372.536471L486.836364 372.536471
L491.345455 372.536471L495.854545 372.536471L500.363636 372.536471
L504.872727 372.536471L509.381818 372.536471L513.890909 372.536471
L518.400000 388.800000"/>
</g>
<g id="line2d7">
<path style="fill: none; stroke: #000000; stroke-width: 2.000000; stroke-linejoin: round; stroke-linecap: square;  opacity: 1.000000" clip-path="url(#p50431ccdcb28178602d99d9270004dde)" d="M72.000000 43.200000L76.509091 43.200000L81.018182 43.200000
L85.527273 43.200000L90.036364 47.265882L94.545455 55.397647
L99.054545 59.463529L103.563636 59.463529L108.072727 83.858824
L112.581818 83.858824L117.090909 91.990588L121.600000 96.056471
L126.109091 108.254118L130.618182 120.451765L135.127273 124.517647
L139.636364 124.517647L144.145455 128.583529L148.654545 136.715294
L153.163636 165.176471L157.672727 165.176471L162.181818 173.308235
L166.690909 177.374118L171.200000 177.374118L175.709091 181.440000
L180.218182 181.440000L184.727273 181.440000L189.236364 189.571765
L193.745455 189.571765L198.254545 205.835294L202.763636 238.362353
L207.272727 238.362353L211.781818 254.625882L216.290909 291.218824
L220.800000 307.482353L225.309091 307.482353L229.818182 307.482353
L234.327273 307.482353L238.836364 307.482353L243.345455 307.482353
L247.854545 307.482353L252.363636 319.680000L256.872727 319.680000
L261.381818 319.680000L265.890909 319.680000L270.400000 319.680000
L274.909091 319.680000L279.418182 335.943529L283.927273 335.943529
L288.436364 335.943529L292.945455 335.943529L297.454545 348.141176
L301.963636 348.141176L306.472727 348.141176L310.981818 348.141176
L315.490909 352.207059L320.000000 352.207059L324.509091 352.207059
L329.018182 352.207059L333.527273 352.207059L338.036364 352.207059
L342.545455 352.207059L347.054545 352.207059L351.563636 352.207059
L356.072727 352.207059L360.581818 352.207059L365.090909 352.207059
L369.600000 360.338824L374.109091 360.338824L378.618182 360.338824
L383.127273 360.338824L387.636364 360.338824L392.145455 360.338824
L396.654545 360.338824L401.163636 360.338824L405.672727 360.338824
L410.181818 360.338824L414.690909 360.338824L419.200000 360.338824
L423.709091 360.338824L428.218182 360.338824L432.727273 360.338824
L437.236364 360.338824L441.745455 360.338824L446.254545 360.338824
L450.763636 360.338824L455.272727 360.338824L459.781818 360.338824
L464.290909 360.338824L468.800000 360.338824L473.309091 360.338824
L477.818182 360.338824L482.327273 360.338824L486.836364 360.338824
L491.345455 360.338824L495.854545 360.338824L500.363636 360.338824
L504.872727 360.338824L509.381818 360.338824L513.890909 360.338824
L518.400000 388.800000"/>
</g>
<g id="line2d8">
<path style="fill: none; stroke: #0000ff; stroke-width: 2.000000; stroke-linejoin: round; stroke-linecap: square;  opacity: 1.000000" clip-path="url(#p50431ccdcb28178602d99d9270004dde)" d="M72.000000 43.200000L76.509091 43.200000L81.018182 43.200000
L85.527273 43.200000L90.036364 43.200000L94.545455 55.397647
L99.054545 55.397647L103.563636 59.463529L108.072727 59.463529
L112.581818 67.595294L117.090909 67.595294L121.600000 67.595294
L126.109091 67.595294L130.618182 67.595294L135.127273 71.661176
L139.636364 75.727059L144.145455 75.727059L148.654545 79.792941
L153.163636 87.924706L157.672727 161.110588L162.181818 169.242353
L166.690909 201.769412L171.200000 209.901176L175.709091 209.901176
L180.218182 238.362353L184.727273 254.625882L189.236364 254.625882
L193.745455 254.625882L198.254545 270.889412L202.763636 270.889412
L207.272727 270.889412L211.781818 287.152941L216.290909 315.614118
L220.800000 315.614118L225.309091 315.614118L229.818182 315.614118
L234.327273 331.877647L238.836364 331.877647L243.345455 340.009412
L247.854545 364.404706L252.363636 364.404706L256.872727 364.404706
L261.381818 364.404706L265.890909 364.404706L270.400000 364.404706
L274.909091 364.404706L279.418182 364.404706L283.927273 364.404706
L288.436364 364.404706L292.945455 364.404706L297.454545 388.800000
L301.963636 388.800000L306.472727 388.800000L310.981818 388.800000
L315.490909 388.800000L320.000000 388.800000L324.509091 388.800000
L329.018182 388.800000L333.527273 388.800000L338.036364 388.800000
L342.545455 388.800000L347.054545 388.800000L351.563636 388.800000
L356.072727 388.800000L360.581818 388.800000L365.090909 388.800000
L369.600000 388.800000L374.109091 388.800000L378.618182 388.800000
L383.127273 388.800000L387.636364 388.800000L392.145455 388.800000
L396.654545 388.800000L401.163636 388.800000L405.672727 388.800000
L410.181818 388.800000L414.690909 388.800000L419.200000 388.800000
L423.709091 388.800000L428.218182 388.800000L432.727273 388.800000
L437.236364 388.800000L441.745455 388.800000L446.254545 388.800000
L450.763636 388.800000L455.272727 388.800000L459.781818 388.800000
L464.290909 388.800000L468.800000 388.800000L473.309091 388.800000
L477.818182 388.800000L482.327273 388.800000L486.836364 388.800000
L491.345455 388.800000L495.854545 388.800000L500.363636 388.800000
L504.872727 388.800000L509.381818 388.800000L513.890909 388.800000
L518.400000 388.800000"/>
</g>
<g id="line2d9">
<path style="fill: none; stroke: #008000; stroke-width: 2.000000; stroke-linejoin: round; stroke-linecap: square;  opacity: 1.000000" clip-path="url(#p50431ccdcb28178602d99d9270004dde)" d="M72.000000 43.200000L76.509091 43.200000L81.018182 43.200000
L85.527273 43.200000L90.036364 43.200000L94.545455 55.397647
L99.054545 55.397647L103.563636 59.463529L108.072727 67.595294
L112.581818 67.595294L117.090909 67.595294L121.600000 67.595294
L126.109091 67.595294L130.618182 67.595294L135.127273 104.188235
L139.636364 120.451765L144.145455 205.835294L148.654545 213.967059
L153.163636 295.284706L157.672727 299.350588L162.181818 303.416471
L166.690909 303.416471L171.200000 303.416471L175.709091 315.614118
L180.218182 319.680000L184.727273 348.141176L189.236364 348.141176
L193.745455 348.141176L198.254545 348.141176L202.763636 348.141176
L207.272727 348.141176L211.781818 348.141176L216.290909 348.141176
L220.800000 352.207059L225.309091 352.207059L229.818182 356.272941
L234.327273 356.272941L238.836364 356.272941L243.345455 364.404706
L247.854545 364.404706L252.363636 364.404706L256.872727 364.404706
L261.381818 364.404706L265.890909 364.404706L270.400000 364.404706
L274.909091 364.404706L279.418182 364.404706L283.927273 364.404706
L288.436364 364.404706L292.945455 364.404706L297.454545 368.470588
L301.963636 368.470588L306.472727 368.470588L310.981818 368.470588
L315.490909 368.470588L320.000000 372.536471L324.509091 372.536471
L329.018182 372.536471L333.527273 372.536471L338.036364 372.536471
L342.545455 372.536471L347.054545 372.536471L351.563636 372.536471
L356.072727 372.536471L360.581818 372.536471L365.090909 372.536471
L369.600000 388.800000L374.109091 388.800000L378.618182 388.800000
L383.127273 388.800000L387.636364 388.800000L392.145455 388.800000
L396.654545 388.800000L401.163636 388.800000L405.672727 388.800000
L410.181818 388.800000L414.690909 388.800000L419.200000 388.800000
L423.709091 388.800000L428.218182 388.800000L432.727273 388.800000
L437.236364 388.800000L441.745455 388.800000L446.254545 388.800000
L450.763636 388.800000L455.272727 388.800000L459.781818 388.800000
L464.290909 388.800000L468.800000 388.800000L473.309091 388.800000
L477.818182 388.800000L482.327273 388.800000L486.836364 388.800000
L491.345455 388.800000L495.854545 388.800000L500.363636 388.800000
L504.872727 388.800000L509.381818 388.800000L513.890909 388.800000
L518.400000 388.800000"/>
</g>
<g id="line2d10">
<path style="fill: none; stroke: #ff0000; stroke-width: 2.000000; stroke-linejoin: round; stroke-linecap: square;  opacity: 1.000000" clip-path="url(#p50431ccdcb28178602d99d9270004dde)" d="M72.000000 112.320000L76.509091 173.308235L81.018182 181.440000
L85.527273 181.440000L90.036364 181.440000L94.545455 185.505882
L99.054545 185.505882L103.563636 189.571765L108.072727 189.571765
L112.581818 189.571765L117.090909 189.571765L121.600000 189.571765
L126.109091 189.571765L130.618182 189.571765L135.127273 218.032941
L139.636364 238.362353L144.145455 258.691765L148.654545 283.087059
L153.163636 299.350588L157.672727 303.416471L162.181818 303.416471
L166.690909 307.482353L171.200000 307.482353L175.709091 319.680000
L180.218182 319.680000L184.727273 348.141176L189.236364 348.141176
L193.745455 348.141176L198.254545 348.141176L202.763636 348.141176
L207.272727 348.141176L211.781818 348.141176L216.290909 348.141176
L220.800000 352.207059L225.309091 352.207059L229.818182 360.338824
L234.327273 360.338824L238.836364 360.338824L243.345455 364.404706
L247.854545 364.404706L252.363636 364.404706L256.872727 364.404706
L261.381818 364.404706L265.890909 364.404706L270.400000 364.404706
L274.909091 364.404706L279.418182 364.404706L283.927273 364.404706
L288.436364 364.404706L292.945455 364.404706L297.454545 368.470588
L301.963636 368.470588L306.472727 368.470588L310.981818 368.470588
L315.490909 368.470588L320.000000 372.536471L324.509091 372.536471
L329.018182 372.536471L333.527273 372.536471L338.036364 372.536471
L342.545455 372.536471L347.054545 372.536471L351.563636 372.536471
L356.072727 372.536471L360.581818 372.536471L365.090909 372.536471
L369.600000 388.800000L374.109091 388.800000L378.618182 388.800000
L383.127273 388.800000L387.636364 388.800000L392.145455 388.800000
L396.654545 388.800000L401.163636 388.800000L405.672727 388.800000
L410.181818 388.800000L414.690909 388.800000L419.200000 388.800000
L423.709091 388.800000L428.218182 388.800000L432.727273 388.800000
L437.236364 388.800000L441.745455 388.800000L446.254545 388.800000
L450.763636 388.800000L455.272727 388.800000L459.781818 388.800000
L464.290909 388.800000L468.800000 388.800000L473.309091 388.800000
L477.818182 388.800000L482.327273 388.800000L486.836364 388.800000
L491.345455 388.800000L495.854545 388.800000L500.363636 388.800000
L504.872727 388.800000L509.381818 388.800000L513.890909 388.800000
L518.400000 388.800000"/>
</g>
<g id="line2d11">
<path style="fill: none; stroke: #00bfbf; stroke-width: 2.000000; stroke-linejoin: round; stroke-linecap: square;  opacity: 1.000000" clip-path="url(#p50431ccdcb28178602d99d9270004dde)" d="M72.000000 181.440000L76.509091 380.668235L81.018182 388.800000
L85.527273 388.800000L90.036364 388.800000L94.545455 388.800000
L99.054545 388.800000L103.563636 388.800000L108.072727 388.800000
L112.581818 388.800000L117.090909 388.800000L121.600000 388.800000
L126.109091 388.800000L130.618182 388.800000L135.127273 388.800000
L139.636364 388.800000L144.145455 388.800000L148.654545 388.800000
L153.163636 388.800000L157.672727 388.800000L162.181818 388.800000
L166.690909 388.800000L171.200000 388.800000L175.709091 388.800000
L180.218182 388.800000L184.727273 388.800000L189.236364 388.800000
L193.745455 388.800000L198.254545 388.800000L202.763636 388.800000
L207.272727 388.800000L211.781818 388.800000L216.290909 388.800000
L220.800000 388.800000L225.309091 388.800000L229.818182 388.800000
L234.327273 388.800000L238.836364 388.800000L243.345455 388.800000
L247.854545 388.800000L252.363636 388.800000L256.872727 388.800000
L261.381818 388.800000L265.890909 388.800000L270.400000 388.800000
L274.909091 388.800000L279.418182 388.800000L283.927273 388.800000
L288.436364 388.800000L292.945455 388.800000L297.454545 388.800000
L301.963636 388.800000L306.472727 388.800000L310.981818 388.800000
L315.490909 388.800000L320.000000 388.800000L324.509091 388.800000
L329.018182 388.800000L333.527273 388.800000L338.036364 388.800000
L342.545455 388.800000L347.054545 388.800000L351.563636 388.800000
L356.072727 388.800000L360.581818 388.800000L365.090909 388.800000
L369.600000 388.800000L374.109091 388.800000L378.618182 388.800000
L383.127273 388.800000L387.636364 388.800000L392.145455 388.800000
L396.654545 388.800000L401.163636 388.800000L405.672727 388.800000
L410.181818 388.800000L414.690909 388.800000L419.200000 388.800000
L423.709091 388.800000L428.218182 388.800000L432.727273 388.800000
L437.236364 388.800000L441.745455 388.800000L446.254545 388.800000
L450.763636 388.800000L455.272727 388.800000L459.781818 388.800000
L464.290909 388.800000L468.800000 388.800000L473.309091 388.800000
L477.818182 388.800000L482.327273 388.800000L486.836364 388.800000
L491.345455 388.800000L495.854545 388.800000L500.363636 388.800000
L504.872727 388.800000L509.381818 388.800000L513.890909 388.800000
L518.400000 388.800000"/>
</g>
<g id="line2d12">
<path style="fill: none; stroke: #bf00bf; stroke-width: 2.000000; stroke-linejoin: round; stroke-linecap: square;  opacity: 1.000000" clip-path="url(#p50431ccdcb28178602d99d9270004dde)" d="M72.000000 43.200000L76.509091 43.200000L81.018182 43.200000
L85.527273 43.200000L90.036364 47.265882L94.545455 63.529412
L99.054545 79.792941L103.563636 91.990588L108.072727 100.122353
L112.581818 116.385882L117.090909 124.517647L121.600000 132.649412
L126.109091 140.781176L130.618182 140.781176L135.127273 140.781176
L139.636364 140.781176L144.145455 148.912941L148.654545 157.044706
L153.163636 161.110588L157.672727 161.110588L162.181818 173.308235
L166.690909 185.505882L171.200000 209.901176L175.709091 222.098824
L180.218182 230.230588L184.727273 242.428235L189.236364 242.428235
L193.745455 242.428235L198.254545 242.428235L202.763636 242.428235
L207.272727 242.428235L211.781818 250.560000L216.290909 266.823529
L220.800000 274.955294L225.309091 274.955294L229.818182 274.955294
L234.327273 295.284706L238.836364 295.284706L243.345455 295.284706
L247.854545 344.075294L252.363636 344.075294L256.872727 344.075294
L261.381818 344.075294L265.890909 344.075294L270.400000 344.075294
L274.909091 344.075294L279.418182 348.141176L283.927273 348.141176
L288.436364 348.141176L292.945455 348.141176L297.454545 348.141176
L301.963636 348.141176L306.472727 348.141176L310.981818 348.141176
L315.490909 348.141176L320.000000 348.141176L324.509091 348.141176
L329.018182 348.141176L333.527273 348.141176L338.036364 348.141176
L342.545455 348.141176L347.054545 348.141176L351.563636 348.141176
L356.072727 348.141176L360.581818 348.141176L365.090909 348.141176
L369.600000 348.141176L374.109091 348.141176L378.618182 348.141176
L383.127273 348.141176L387.636364 348.141176L392.145455 348.141176
L396.654545 348.141176L401.163636 348.141176L405.672727 348.141176
L410.181818 356.272941L414.690909 356.272941L419.200000 356.272941
L423.709091 356.272941L428.218182 356.272941L432.727273 356.272941
L437.236364 356.272941L441.745455 356.272941L446.254545 364.404706
L450.763636 364.404706L455.272727 364.404706L459.781818 364.404706
L464.290909 364.404706L468.800000 364.404706L473.309091 364.404706
L477.818182 364.404706L482.327273 364.404706L486.836364 364.404706
L491.345455 364.404706L495.854545 364.404706L500.363636 364.404706
L504.872727 364.404706L509.381818 364.404706L513.890909 364.404706
L518.400000 388.800000"/>
</g>
<g id="matplotlib.axis1">
<g id="xtick1">
<g id="line2d13">
<defs><path id="m30e32995789d870ad79a2e54c91cf9c6" d="M0.000000 0.000000L0.000000 -4.000000"/></defs>
<g ><use style="fill: none; stroke: #000000; stroke-width: 0.500000; stroke-linejoin: round; stroke-linecap: butt;  opacity: 1.000000" xlink:href="#m30e32995789d870ad79a2e54c91cf9c6" x="72.000000" y="388.800000"/>
</g></g>
<g id="line2d14">
<defs><path id="m9281cae24120827b11d5ea8a7ad3e96b" d="M0.000000 0.000000L0.000000 4.000000"/></defs>
<g ><use style="fill: none; stroke: #000000; stroke-width: 0.500000; stroke-linejoin: round; stroke-linecap: butt;  opacity: 1.000000" xlink:href="#m9281cae24120827b11d5ea8a7ad3e96b" x="72.000000" y="43.200000"/>
</g></g>
<g id="text1">
<defs>
<path id="c_7a2040fe3b94fcd41d0a72c84e93b115" d="M31.781250 -66.406250q-7.609375 0.000000 -11.453125 7.500000q-3.828125 7.484375 -3.828125 22.531250q0.000000 14.984375 3.828125 22.484375q3.843750 7.500000 11.453125 7.500000q7.671875 0.000000 11.500000 -7.500000q3.843750 -7.500000 3.843750 -22.484375q0.000000 -15.046875 -3.843750 -22.531250q-3.828125 -7.500000 -11.500000 -7.500000M31.781250 -74.218750q12.265625 0.000000 18.734375 9.703125q6.468750 9.687500 6.468750 28.140625q0.000000 18.406250 -6.468750 28.109375q-6.468750 9.687500 -18.734375 9.687500q-12.250000 0.000000 -18.718750 -9.687500q-6.468750 -9.703125 -6.468750 -28.109375q0.000000 -18.453125 6.468750 -28.140625q6.468750 -9.703125 18.718750 -9.703125"/>
<path id="c_ed3e21196fb739f392806f09ca0594ef" d="M10.687500 -12.406250l10.312500 0.000000l0.000000 12.406250l-10.312500 0.000000z"/>
</defs>
<g style="fill: #000000; opacity: 1.000000" transform="translate(63.250000,401.706250)scale(0.120000)">
<use xlink:href="#c_7a2040fe3b94fcd41d0a72c84e93b115"/>
<use xlink:href="#c_ed3e21196fb739f392806f09ca0594ef" x="63.623047"/>
<use xlink:href="#c_7a2040fe3b94fcd41d0a72c84e93b115" x="95.410156"/>
</g>
</g>
</g>
<g id="xtick2">
<g id="line2d15">
<g ><use style="fill: none; stroke: #000000; stroke-width: 0.500000; stroke-linejoin: round; stroke-linecap: butt;  opacity: 1.000000" xlink:href="#m30e32995789d870ad79a2e54c91cf9c6" x="161.280000" y="388.800000"/>
</g></g>
<g id="line2d16">
<g ><use style="fill: none; stroke: #000000; stroke-width: 0.500000; stroke-linejoin: round; stroke-linecap: butt;  opacity: 1.000000" xlink:href="#m9281cae24120827b11d5ea8a7ad3e96b" x="161.280000" y="43.200000"/>
</g></g>
<g id="text2">
<defs>
<path id="c_ed3f3ed3ebfbd18bcb9c012009a68ad1" d="M19.187500 -8.296875l34.421875 0.000000l0.000000 8.296875l-46.281250 0.000000l0.000000 -8.296875q5.609375 -5.812500 15.296875 -15.593750q9.703125 -9.796875 12.187500 -12.640625q4.734375 -5.312500 6.609375 -9.000000q1.890625 -3.687500 1.890625 -7.250000q0.000000 -5.812500 -4.078125 -9.468750q-4.078125 -3.671875 -10.625000 -3.671875q-4.640625 0.000000 -9.796875 1.609375q-5.140625 1.609375 -11.000000 4.890625l0.000000 -9.968750q5.953125 -2.390625 11.125000 -3.609375q5.187500 -1.218750 9.484375 -1.218750q11.328125 0.000000 18.062500 5.671875q6.734375 5.656250 6.734375 15.125000q0.000000 4.500000 -1.687500 8.531250q-1.671875 4.015625 -6.125000 9.484375q-1.218750 1.421875 -7.765625 8.187500q-6.531250 6.765625 -18.453125 18.921875"/>
</defs>
<g style="fill: #000000; opacity: 1.000000" transform="translate(152.733125,401.706250)scale(0.120000)">
<use xlink:href="#c_7a2040fe3b94fcd41d0a72c84e93b115"/>
<use xlink:href="#c_ed3e21196fb739f392806f09ca0594ef" x="63.623047"/>
<use xlink:href="#c_ed3f3ed3ebfbd18bcb9c012009a68ad1" x="95.410156"/>
</g>
</g>
</g>
<g id="xtick3">
<g id="line2d17">
<g ><use style="fill: none; stroke: #000000; stroke-width: 0.500000; stroke-linejoin: round; stroke-linecap: butt;  opacity: 1.000000" xlink:href="#m30e32995789d870ad79a2e54c91cf9c6" x="250.560000" y="388.800000"/>
</g></g>
<g id="line2d18">
<g ><use style="fill: none; stroke: #000000; stroke-width: 0.500000; stroke-linejoin: round; stroke-linecap: butt;  opacity: 1.000000" xlink:href="#m9281cae24120827b11d5ea8a7ad3e96b" x="250.560000" y="43.200000"/>
</g></g>
<g id="text3">
<defs>
<path id="c_a0416418d96557a09b8c1332d34883ba" d="M37.796875 -64.312500l-24.906250 38.921875l24.906250 0.000000zM35.203125 -72.906250l12.406250 0.000000l0.000000 47.515625l10.406250 0.000000l0.000000 8.203125l-10.406250 0.000000l0.000000 17.187500l-9.812500 0.000000l0.000000 -17.187500l-32.906250 0.000000l0.000000 -9.515625z"/>
</defs>
<g style="fill: #000000; opacity: 1.000000" transform="translate(241.747500,401.706250)scale(0.120000)">
<use xlink:href="#c_7a2040fe3b94fcd41d0a72c84e93b115"/>
<use xlink:href="#c_ed3e21196fb739f392806f09ca0594ef" x="63.623047"/>
<use xlink:href="#c_a0416418d96557a09b8c1332d34883ba" x="95.410156"/>
</g>
</g>
</g>
<g id="xtick4">
<g id="line2d19">
<g ><use style="fill: none; stroke: #000000; stroke-width: 0.500000; stroke-linejoin: round; stroke-linecap: butt;  opacity: 1.000000" xlink:href="#m30e32995789d870ad79a2e54c91cf9c6" x="339.840000" y="388.800000"/>
</g></g>
<g id="line2d20">
<g ><use style="fill: none; stroke: #000000; stroke-width: 0.500000; stroke-linejoin: round; stroke-linecap: butt;  opacity: 1.000000" xlink:href="#m9281cae24120827b11d5ea8a7ad3e96b" x="339.840000" y="43.200000"/>
</g></g>
<g id="text4">
<defs>
<path id="c_cc8d6d580d1b10c8632f7a42cd53db8a" d="M33.015625 -40.375000q-6.640625 0.000000 -10.531250 4.546875q-3.875000 4.531250 -3.875000 12.437500q0.000000 7.859375 3.875000 12.437500q3.890625 4.562500 10.531250 4.562500q6.640625 0.000000 10.515625 -4.562500q3.875000 -4.578125 3.875000 -12.437500q0.000000 -7.906250 -3.875000 -12.437500q-3.875000 -4.546875 -10.515625 -4.546875M52.593750 -71.296875l0.000000 8.984375q-3.718750 -1.750000 -7.500000 -2.671875q-3.781250 -0.937500 -7.500000 -0.937500q-9.765625 0.000000 -14.921875 6.593750q-5.140625 6.593750 -5.875000 19.921875q2.875000 -4.250000 7.218750 -6.515625q4.359375 -2.265625 9.578125 -2.265625q10.984375 0.000000 17.359375 6.671875q6.375000 6.656250 6.375000 18.125000q0.000000 11.234375 -6.640625 18.031250q-6.640625 6.781250 -17.671875 6.781250q-12.656250 0.000000 -19.343750 -9.687500q-6.687500 -9.703125 -6.687500 -28.109375q0.000000 -17.281250 8.203125 -27.562500q8.203125 -10.281250 22.015625 -10.281250q3.718750 0.000000 7.500000 0.734375q3.781250 0.734375 7.890625 2.187500"/>
</defs>
<g style="fill: #000000; opacity: 1.000000" transform="translate(331.074375,401.706250)scale(0.120000)">
<use xlink:href="#c_7a2040fe3b94fcd41d0a72c84e93b115"/>
<use xlink:href="#c_ed3e21196fb739f392806f09ca0594ef" x="63.623047"/>
<use xlink:href="#c_cc8d6d580d1b10c8632f7a42cd53db8a" x="95.410156"/>
</g>
</g>
</g>
<g id="xtick5">
<g id="line2d21">
<g ><use style="fill: none; stroke: #000000; stroke-width: 0.500000; stroke-linejoin: round; stroke-linecap: butt;  opacity: 1.000000" xlink:href="#m30e32995789d870ad79a2e54c91cf9c6" x="429.120000" y="388.800000"/>
</g></g>
<g id="line2d22">
<g ><use style="fill: none; stroke: #000000; stroke-width: 0.500000; stroke-linejoin: round; stroke-linecap: butt;  opacity: 1.000000" xlink:href="#m9281cae24120827b11d5ea8a7ad3e96b" x="429.120000" y="43.200000"/>
</g></g>
<g id="text5">
<defs>
<path id="c_bef35738d52871942e50b9de9b122bab" d="M31.781250 -34.625000q-7.031250 0.000000 -11.062500 3.765625q-4.015625 3.765625 -4.015625 10.343750q0.000000 6.593750 4.015625 10.359375q4.031250 3.765625 11.062500 3.765625q7.031250 0.000000 11.078125 -3.781250q4.062500 -3.796875 4.062500 -10.343750q0.000000 -6.578125 -4.031250 -10.343750q-4.015625 -3.765625 -11.109375 -3.765625M21.921875 -38.812500q-6.343750 -1.562500 -9.890625 -5.906250q-3.531250 -4.359375 -3.531250 -10.609375q0.000000 -8.734375 6.218750 -13.812500q6.234375 -5.078125 17.062500 -5.078125q10.890625 0.000000 17.093750 5.078125q6.203125 5.078125 6.203125 13.812500q0.000000 6.250000 -3.546875 10.609375q-3.531250 4.343750 -9.828125 5.906250q7.125000 1.656250 11.093750 6.500000q3.984375 4.828125 3.984375 11.796875q0.000000 10.609375 -6.468750 16.281250q-6.468750 5.656250 -18.531250 5.656250q-12.046875 0.000000 -18.531250 -5.656250q-6.468750 -5.671875 -6.468750 -16.281250q0.000000 -6.968750 4.000000 -11.796875q4.015625 -4.843750 11.140625 -6.500000M18.312500 -54.390625q0.000000 5.656250 3.531250 8.828125q3.546875 3.171875 9.937500 3.171875q6.359375 0.000000 9.937500 -3.171875q3.593750 -3.171875 3.593750 -8.828125q0.000000 -5.671875 -3.593750 -8.843750q-3.578125 -3.171875 -9.937500 -3.171875q-6.390625 0.000000 -9.937500 3.171875q-3.531250 3.171875 -3.531250 8.843750"/>
</defs>
<g style="fill: #000000; opacity: 1.000000" transform="translate(420.385625,401.706250)scale(0.120000)">
<use xlink:href="#c_7a2040fe3b94fcd41d0a72c84e93b115"/>
<use xlink:href="#c_ed3e21196fb739f392806f09ca0594ef" x="63.623047"/>
<use xlink:href="#c_bef35738d52871942e50b9de9b122bab" x="95.410156"/>
</g>
</g>
</g>
<g id="xtick6">
<g id="line2d23">
<g ><use style="fill: none; stroke: #000000; stroke-width: 0.500000; stroke-linejoin: round; stroke-linecap: butt;  opacity: 1.000000" xlink:href="#m30e32995789d870ad79a2e54c91cf9c6" x="518.400000" y="388.800000"/>
</g></g>
<g id="line2d24">
<g ><use style="fill: none; stroke: #000000; stroke-width: 0.500000; stroke-linejoin: round; stroke-linecap: butt;  opacity: 1.000000" xlink:href="#m9281cae24120827b11d5ea8a7ad3e96b" x="518.400000" y="43.200000"/>
</g></g>
<g id="text6">
<defs>
<path id="c_42baa63129a918535c52adb20d687ea7" d="M12.406250 -8.296875l16.109375 0.000000l0.000000 -55.625000l-17.531250 3.515625l0.000000 -8.984375l17.437500 -3.515625l9.859375 0.000000l0.000000 64.609375l16.109375 0.000000l0.000000 8.296875l-41.984375 0.000000z"/>
</defs>
<g style="fill: #000000; opacity: 1.000000" transform="translate(509.907812,401.706250)scale(0.120000)">
<use xlink:href="#c_42baa63129a918535c52adb20d687ea7"/>
<use xlink:href="#c_ed3e21196fb739f392806f09ca0594ef" x="63.623047"/>
<use xlink:href="#c_7a2040fe3b94fcd41d0a72c84e93b115" x="95.410156"/>
</g>
</g>
</g>
<g id="text7">
<defs>
<path id="c_518d586bee075aa0153eaebfcb5ab11f" d="M19.671875 -64.796875l0.000000 27.390625l12.406250 0.000000q6.890625 0.000000 10.640625 -3.562500q3.765625 -3.562500 3.765625 -10.156250q0.000000 -6.546875 -3.765625 -10.109375q-3.750000 -3.562500 -10.640625 -3.562500zM9.812500 -72.906250l22.265625 0.000000q12.265625 0.000000 18.531250 5.546875q6.281250 5.546875 6.281250 16.234375q0.000000 10.796875 -6.281250 16.312500q-6.265625 5.515625 -18.531250 5.515625l-12.406250 0.000000l0.000000 29.296875l-9.859375 0.000000z"/>
<path id="c_6ec8d5749226675394676a5d2a3b468b" d="M41.109375 -46.296875q-1.515625 -0.875000 -3.296875 -1.281250q-1.781250 -0.421875 -3.921875 -0.421875q-7.625000 0.000000 -11.703125 4.953125q-4.078125 4.953125 -4.078125 14.234375l0.000000 28.812500l-9.031250 0.000000l0.000000 -54.687500l9.031250 0.000000l0.000000 8.500000q2.843750 -4.984375 7.375000 -7.390625q4.546875 -2.421875 11.046875 -2.421875q0.921875 0.000000 2.046875 0.125000q1.125000 0.109375 2.484375 0.359375z"/>
<path id="c_0bce5afba2dc6b9024b26277c38ad8e8" d="M56.203125 -29.593750l0.000000 4.390625l-41.312500 0.000000q0.593750 9.281250 5.593750 14.140625q5.000000 4.859375 13.937500 4.859375q5.171875 0.000000 10.031250 -1.265625q4.859375 -1.265625 9.656250 -3.812500l0.000000 8.500000q-4.843750 2.046875 -9.921875 3.125000q-5.078125 1.078125 -10.296875 1.078125q-13.093750 0.000000 -20.734375 -7.609375q-7.640625 -7.625000 -7.640625 -20.625000q0.000000 -13.421875 7.250000 -21.296875q7.250000 -7.890625 19.562500 -7.890625q11.031250 0.000000 17.453125 7.109375q6.421875 7.093750 6.421875 19.296875M47.218750 -32.234375q-0.093750 -7.359375 -4.125000 -11.750000q-4.031250 -4.406250 -10.671875 -4.406250q-7.515625 0.000000 -12.031250 4.250000q-4.515625 4.250000 -5.203125 11.968750z"/>
<path id="c_d650c37394b681142a10dfc54356d478" d="M48.781250 -52.593750l0.000000 8.406250q-3.812500 -2.109375 -7.640625 -3.156250q-3.828125 -1.046875 -7.734375 -1.046875q-8.750000 0.000000 -13.593750 5.546875q-4.828125 5.531250 -4.828125 15.546875q0.000000 10.015625 4.828125 15.562500q4.843750 5.531250 13.593750 5.531250q3.906250 0.000000 7.734375 -1.046875q3.828125 -1.046875 7.640625 -3.156250l0.000000 8.312500q-3.765625 1.750000 -7.796875 2.625000q-4.015625 0.890625 -8.562500 0.890625q-12.359375 0.000000 -19.640625 -7.765625q-7.265625 -7.765625 -7.265625 -20.953125q0.000000 -13.375000 7.343750 -21.031250q7.359375 -7.671875 20.156250 -7.671875q4.140625 0.000000 8.093750 0.859375q3.953125 0.843750 7.671875 2.546875"/>
<path id="c_6a63bda47b2f3da1cec6aadd80692cfe" d="M9.421875 -54.687500l8.984375 0.000000l0.000000 54.687500l-8.984375 0.000000zM9.421875 -75.984375l8.984375 0.000000l0.000000 11.390625l-8.984375 0.000000z"/>
<path id="c_8e0810ad13fe20a2a87a2619799b154d" d="M44.281250 -53.078125l0.000000 8.500000q-3.796875 -1.953125 -7.906250 -2.921875q-4.093750 -0.984375 -8.500000 -0.984375q-6.687500 0.000000 -10.031250 2.046875q-3.343750 2.046875 -3.343750 6.156250q0.000000 3.125000 2.390625 4.906250q2.390625 1.781250 9.625000 3.390625l3.078125 0.687500q9.562500 2.046875 13.593750 5.781250q4.031250 3.734375 4.031250 10.421875q0.000000 7.625000 -6.031250 12.078125q-6.031250 4.437500 -16.578125 4.437500q-4.390625 0.000000 -9.156250 -0.859375q-4.765625 -0.859375 -10.031250 -2.562500l0.000000 -9.281250q4.984375 2.593750 9.812500 3.890625q4.828125 1.281250 9.578125 1.281250q6.343750 0.000000 9.750000 -2.171875q3.421875 -2.171875 3.421875 -6.125000q0.000000 -3.656250 -2.468750 -5.609375q-2.453125 -1.953125 -10.812500 -3.765625l-3.125000 -0.734375q-8.343750 -1.750000 -12.062500 -5.390625q-3.703125 -3.640625 -3.703125 -9.984375q0.000000 -7.718750 5.468750 -11.906250q5.468750 -4.203125 15.531250 -4.203125q4.968750 0.000000 9.359375 0.734375q4.406250 0.718750 8.109375 2.187500"/>
<path id="c_f05dd90d41f04bb96ef1ca503cc2044b" d="M30.609375 -48.390625q-7.218750 0.000000 -11.421875 5.640625q-4.203125 5.640625 -4.203125 15.453125q0.000000 9.812500 4.171875 15.453125q4.187500 5.640625 11.453125 5.640625q7.187500 0.000000 11.375000 -5.656250q4.203125 -5.671875 4.203125 -15.437500q0.000000 -9.718750 -4.203125 -15.406250q-4.187500 -5.687500 -11.375000 -5.687500M30.609375 -56.000000q11.718750 0.000000 18.406250 7.625000q6.703125 7.609375 6.703125 21.078125q0.000000 13.421875 -6.703125 21.078125q-6.687500 7.640625 -18.406250 7.640625q-11.765625 0.000000 -18.437500 -7.640625q-6.656250 -7.656250 -6.656250 -21.078125q0.000000 -13.468750 6.656250 -21.078125q6.671875 -7.625000 18.437500 -7.625000"/>
<path id="c_fe791a90f5471e2ab20a5ed41a7fa451" d="M54.890625 -33.015625l0.000000 33.015625l-8.984375 0.000000l0.000000 -32.718750q0.000000 -7.765625 -3.031250 -11.609375q-3.031250 -3.859375 -9.078125 -3.859375q-7.281250 0.000000 -11.484375 4.640625q-4.203125 4.625000 -4.203125 12.640625l0.000000 30.906250l-9.031250 0.000000l0.000000 -54.687500l9.031250 0.000000l0.000000 8.500000q3.234375 -4.937500 7.593750 -7.375000q4.375000 -2.437500 10.093750 -2.437500q9.421875 0.000000 14.250000 5.828125q4.843750 5.828125 4.843750 17.156250"/>
</defs>
<g style="fill: #000000; opacity: 1.000000" transform="translate(269.535937,416.003125)scale(0.120000)">
<use xlink:href="#c_518d586bee075aa0153eaebfcb5ab11f"/>
<use xlink:href="#c_6ec8d5749226675394676a5d2a3b468b" x="58.552734"/>
<use xlink:href="#c_0bce5afba2dc6b9024b26277c38ad8e8" x="97.416016"/>
<use xlink:href="#c_d650c37394b681142a10dfc54356d478" x="158.939453"/>
<use xlink:href="#c_6a63bda47b2f3da1cec6aadd80692cfe" x="213.919922"/>
<use xlink:href="#c_8e0810ad13fe20a2a87a2619799b154d" x="241.703125"/>
<use xlink:href="#c_6a63bda47b2f3da1cec6aadd80692cfe" x="293.802734"/>
<use xlink:href="#c_f05dd90d41f04bb96ef1ca503cc2044b" x="321.585938"/>
<use xlink:href="#c_fe791a90f5471e2ab20a5ed41a7fa451" x="382.767578"/>
</g>
</g>
</g>
<g id="matplotlib.axis2">
<g id="ytick1">
<g id="line2d25">
<defs><path id="m3400efa6b1638b3fea9e19e898273957" d="M0.000000 0.000000L4.000000 0.000000"/></defs>
<g ><use style="fill: none; stroke: #000000; stroke-width: 0.500000; stroke-linejoin: round; stroke-linecap: butt;  opacity: 1.000000" xlink:href="#m3400efa6b1638b3fea9e19e898273957" x="72.000000" y="388.800000"/>
</g></g>
<g id="line2d26">
<defs><path id="m20b58b2501143cb5e0a5e8f1ef6f1643" d="M0.000000 0.000000L-4.000000 0.000000"/></defs>
<g ><use style="fill: none; stroke: #000000; stroke-width: 0.500000; stroke-linejoin: round; stroke-linecap: butt;  opacity: 1.000000" xlink:href="#m20b58b2501143cb5e0a5e8f1ef6f1643" x="518.400000" y="388.800000"/>
</g></g>
<g id="text8">
<g style="fill: #000000; opacity: 1.000000" transform="translate(50.500000,393.167188)scale(0.120000)">
<use xlink:href="#c_7a2040fe3b94fcd41d0a72c84e93b115"/>
<use xlink:href="#c_ed3e21196fb739f392806f09ca0594ef" x="63.623047"/>
<use xlink:href="#c_7a2040fe3b94fcd41d0a72c84e93b115" x="95.410156"/>
</g>
</g>
</g>
<g id="ytick2">
<g id="line2d27">
<g ><use style="fill: none; stroke: #000000; stroke-width: 0.500000; stroke-linejoin: round; stroke-linecap: butt;  opacity: 1.000000" xlink:href="#m3400efa6b1638b3fea9e19e898273957" x="72.000000" y="319.680000"/>
</g></g>
<g id="line2d28">
<g ><use style="fill: none; stroke: #000000; stroke-width: 0.500000; stroke-linejoin: round; stroke-linecap: butt;  opacity: 1.000000" xlink:href="#m20b58b2501143cb5e0a5e8f1ef6f1643" x="518.400000" y="319.680000"/>
</g></g>
<g id="text9">
<g style="fill: #000000; opacity: 1.000000" transform="translate(50.906250,324.047188)scale(0.120000)">
<use xlink:href="#c_7a2040fe3b94fcd41d0a72c84e93b115"/>
<use xlink:href="#c_ed3e21196fb739f392806f09ca0594ef" x="63.623047"/>
<use xlink:href="#c_ed3f3ed3ebfbd18bcb9c012009a68ad1" x="95.410156"/>
</g>
</g>
</g>
<g id="ytick3">
<g id="line2d29">
<g ><use style="fill: none; stroke: #000000; stroke-width: 0.500000; stroke-linejoin: round; stroke-linecap: butt;  opacity: 1.000000" xlink:href="#m3400efa6b1638b3fea9e19e898273957" x="72.000000" y="250.560000"/>
</g></g>
<g id="line2d30">
<g ><use style="fill: none; stroke: #000000; stroke-width: 0.500000; stroke-linejoin: round; stroke-linecap: butt;  opacity: 1.000000" xlink:href="#m20b58b2501143cb5e0a5e8f1ef6f1643" x="518.400000" y="250.560000"/>
</g></g>
<g id="text10">
<g style="fill: #000000; opacity: 1.000000" transform="translate(50.375000,254.927188)scale(0.120000)">
<use xlink:href="#c_7a2040fe3b94fcd41d0a72c84e93b115"/>
<use xlink:href="#c_ed3e21196fb739f392806f09ca0594ef" x="63.623047"/>
<use xlink:href="#c_a0416418d96557a09b8c1332d34883ba" x="95.410156"/>
</g>
</g>
</g>
<g id="ytick4">
<g id="line2d31">
<g ><use style="fill: none; stroke: #000000; stroke-width: 0.500000; stroke-linejoin: round; stroke-linecap: butt;  opacity: 1.000000" xlink:href="#m3400efa6b1638b3fea9e19e898273957" x="72.000000" y="181.440000"/>
</g></g>
<g id="line2d32">
<g ><use style="fill: none; stroke: #000000; stroke-width: 0.500000; stroke-linejoin: round; stroke-linecap: butt;  opacity: 1.000000" xlink:href="#m20b58b2501143cb5e0a5e8f1ef6f1643" x="518.400000" y="181.440000"/>
</g></g>
<g id="text11">
<g style="fill: #000000; opacity: 1.000000" transform="translate(50.468750,185.807187)scale(0.120000)">
<use xlink:href="#c_7a2040fe3b94fcd41d0a72c84e93b115"/>
<use xlink:href="#c_ed3e21196fb739f392806f09ca0594ef" x="63.623047"/>
<use xlink:href="#c_cc8d6d580d1b10c8632f7a42cd53db8a" x="95.410156"/>
</g>
</g>
</g>
<g id="ytick5">
<g id="line2d33">
<g ><use style="fill: none; stroke: #000000; stroke-width: 0.500000; stroke-linejoin: round; stroke-linecap: butt;  opacity: 1.000000" xlink:href="#m3400efa6b1638b3fea9e19e898273957" x="72.000000" y="112.320000"/>
</g></g>
<g id="line2d34">
<g ><use style="fill: none; stroke: #000000; stroke-width: 0.500000; stroke-linejoin: round; stroke-linecap: butt;  opacity: 1.000000" xlink:href="#m20b58b2501143cb5e0a5e8f1ef6f1643" x="518.400000" y="112.320000"/>
</g></g>
<g id="text12">
<g style="fill: #000000; opacity: 1.000000" transform="translate(50.531250,116.687187)scale(0.120000)">
<use xlink:href="#c_7a2040fe3b94fcd41d0a72c84e93b115"/>
<use xlink:href="#c_ed3e21196fb739f392806f09ca0594ef" x="63.623047"/>
<use xlink:href="#c_bef35738d52871942e50b9de9b122bab" x="95.410156"/>
</g>
</g>
</g>
<g id="ytick6">
<g id="line2d35">
<g ><use style="fill: none; stroke: #000000; stroke-width: 0.500000; stroke-linejoin: round; stroke-linecap: butt;  opacity: 1.000000" xlink:href="#m3400efa6b1638b3fea9e19e898273957" x="72.000000" y="43.200000"/>
</g></g>
<g id="line2d36">
<g ><use style="fill: none; stroke: #000000; stroke-width: 0.500000; stroke-linejoin: round; stroke-linecap: butt;  opacity: 1.000000" xlink:href="#m20b58b2501143cb5e0a5e8f1ef6f1643" x="518.400000" y="43.200000"/>
</g></g>
<g id="text13">
<g style="fill: #000000; opacity: 1.000000" transform="translate(51.015625,47.567187)scale(0.120000)">
<use xlink:href="#c_42baa63129a918535c52adb20d687ea7"/>
<use xlink:href="#c_ed3e21196fb739f392806f09ca0594ef" x="63.623047"/>
<use xlink:href="#c_7a2040fe3b94fcd41d0a72c84e93b115" x="95.410156"/>
</g>
</g>
</g>
<g id="text14">
<defs>
<path id="c_4c6532c564269b2c70b230c2e45c01e4" d="M44.390625 -34.187500q3.171875 1.078125 6.171875 4.593750q3.000000 3.515625 6.031250 9.671875l10.015625 19.921875l-10.609375 0.000000l-9.312500 -18.703125q-3.625000 -7.328125 -7.015625 -9.718750q-3.390625 -2.390625 -9.250000 -2.390625l-10.750000 0.000000l0.000000 30.812500l-9.859375 0.000000l0.000000 -72.906250l22.265625 0.000000q12.500000 0.000000 18.656250 5.234375q6.156250 5.218750 6.156250 15.765625q0.000000 6.890625 -3.203125 11.437500q-3.203125 4.531250 -9.296875 6.281250M19.671875 -64.796875l0.000000 25.875000l12.406250 0.000000q7.125000 0.000000 10.765625 -3.296875q3.640625 -3.296875 3.640625 -9.687500q0.000000 -6.390625 -3.640625 -9.640625q-3.640625 -3.250000 -10.765625 -3.250000z"/>
<path id="c_01d93a582460e35a7945ca50d148ffeb" d="M34.281250 -27.484375q-10.890625 0.000000 -15.093750 2.484375q-4.203125 2.484375 -4.203125 8.500000q0.000000 4.781250 3.156250 7.593750q3.156250 2.796875 8.562500 2.796875q7.484375 0.000000 12.000000 -5.296875q4.515625 -5.296875 4.515625 -14.078125l0.000000 -2.000000zM52.203125 -31.203125l0.000000 31.203125l-8.984375 0.000000l0.000000 -8.296875q-3.078125 4.968750 -7.671875 7.343750q-4.593750 2.375000 -11.234375 2.375000q-8.390625 0.000000 -13.359375 -4.718750q-4.953125 -4.718750 -4.953125 -12.625000q0.000000 -9.218750 6.171875 -13.906250q6.187500 -4.687500 18.437500 -4.687500l12.609375 0.000000l0.000000 -0.890625q0.000000 -6.203125 -4.078125 -9.593750q-4.078125 -3.390625 -11.453125 -3.390625q-4.687500 0.000000 -9.140625 1.125000q-4.437500 1.125000 -8.531250 3.375000l0.000000 -8.312500q4.921875 -1.906250 9.562500 -2.843750q4.640625 -0.953125 9.031250 -0.953125q11.875000 0.000000 17.734375 6.156250q5.859375 6.140625 5.859375 18.640625"/>
<path id="c_5099edb83619131346ae654950954dea" d="M9.421875 -75.984375l8.984375 0.000000l0.000000 75.984375l-8.984375 0.000000z"/>
</defs>
<g style="fill: #000000; opacity: 1.000000" transform="translate(45.375000,232.601562)rotate(-90.0)scale(0.120000)">
<use xlink:href="#c_4c6532c564269b2c70b230c2e45c01e4"/>
<use xlink:href="#c_0bce5afba2dc6b9024b26277c38ad8e8" x="64.982422"/>
<use xlink:href="#c_d650c37394b681142a10dfc54356d478" x="126.505859"/>
<use xlink:href="#c_01d93a582460e35a7945ca50d148ffeb" x="181.486328"/>
<use xlink:href="#c_5099edb83619131346ae654950954dea" x="242.765625"/>
<use xlink:href="#c_5099edb83619131346ae654950954dea" x="270.548828"/>
</g>
</g>
</g>
<g id="patch3">
<path style="fill: none; stroke: #000000; stroke-width: 1.000000; stroke-linejoin: round; stroke-linecap: square;  opacity: 1.000000"  d="M72.000000 43.200000L518.400000 43.200000"/>
</g>
<g id="patch4">
<path style="fill: none; stroke: #000000; stroke-width: 1.000000; stroke-linejoin: round; stroke-linecap: square;  opacity: 1.000000"  d="M518.400000 388.800000L518.400000 43.200000"/>
</g>
<g id="patch5">
<path style="fill: none; stroke: #000000; stroke-width: 1.000000; stroke-linejoin: round; stroke-linecap: square;  opacity: 1.000000"  d="M72.000000 388.800000L518.400000 388.800000"/>
</g>
<g id="patch6">
<path style="fill: none; stroke: #000000; stroke-width: 1.000000; stroke-linejoin: round; stroke-linecap: square;  opacity: 1.000000"  d="M72.000000 388.800000L72.000000 43.200000"/>
</g>
<g id="text15">
<defs>
<path id="c_d41d8cd98f00b204e9800998ecf8427e" d=""/>
<path id="c_c48ceabac27bf136feba2f4bf2716ab6" d="M2.984375 -54.687500l9.515625 0.000000l17.093750 45.890625l17.093750 -45.890625l9.515625 0.000000l-20.515625 54.687500l-12.203125 0.000000z"/>
</defs>
<g style="fill: #000000; opacity: 1.000000" transform="translate(231.707812,38.200000)scale(0.144000)">
<use xlink:href="#c_518d586bee075aa0153eaebfcb5ab11f"/>
<use xlink:href="#c_6ec8d5749226675394676a5d2a3b468b" x="58.552734"/>
<use xlink:href="#c_0bce5afba2dc6b9024b26277c38ad8e8" x="97.416016"/>
<use xlink:href="#c_d650c37394b681142a10dfc54356d478" x="158.939453"/>
<use xlink:href="#c_6a63bda47b2f3da1cec6aadd80692cfe" x="213.919922"/>
<use xlink:href="#c_8e0810ad13fe20a2a87a2619799b154d" x="241.703125"/>
<use xlink:href="#c_6a63bda47b2f3da1cec6aadd80692cfe" x="293.802734"/>
<use xlink:href="#c_f05dd90d41f04bb96ef1ca503cc2044b" x="321.585937"/>
<use xlink:href="#c_fe791a90f5471e2ab20a5ed41a7fa451" x="382.767578"/>
<use xlink:href="#c_d41d8cd98f00b204e9800998ecf8427e" x="446.146484"/>
<use xlink:href="#c_c48ceabac27bf136feba2f4bf2716ab6" x="477.933594"/>
<use xlink:href="#c_8e0810ad13fe20a2a87a2619799b154d" x="537.113281"/>
<use xlink:href="#c_d41d8cd98f00b204e9800998ecf8427e" x="589.212891"/>
<use xlink:href="#c_6ec8d5749226675394676a5d2a3b468b" x="621.000000"/>
<use xlink:href="#c_0bce5afba2dc6b9024b26277c38ad8e8" x="659.863281"/>
<use xlink:href="#c_d650c37394b681142a10dfc54356d478" x="721.386719"/>
<use xlink:href="#c_01d93a582460e35a7945ca50d148ffeb" x="776.367187"/>
<use xlink:href="#c_5099edb83619131346ae654950954dea" x="837.646484"/>
<use xlink:href="#c_5099edb83619131346ae654950954dea" x="865.429687"/>
</g>
</g>
<g id="legend1">
<g id="patch7">
<path style="fill: #ffffff; stroke: #000000; stroke-width: 1.000000; stroke-linejoin: round; stroke-linecap: square;  opacity: 1.000000"  d="M191.766250 302.620000L511.200000 302.620000L511.200000 50.400000
L191.766250 50.400000L191.766250 302.620000z"/>
</g>
<g id="line2d37">
<path style="fill: none; stroke: #0000ff; stroke-width: 2.000000; stroke-linejoin: round; stroke-linecap: square;  opacity: 1.000000"  d="M201.846250 61.760625L222.006250 61.760625"/>
</g>
<g id="line2d38">
</g>
<g id="text16">
<defs>
<path id="c_9e4b30cbdf32072672ded72e9074c4c9" d="M-0.296875 -72.906250l61.671875 0.000000l0.000000 8.312500l-25.875000 0.000000l0.000000 64.593750l-9.906250 0.000000l0.000000 -64.593750l-25.890625 0.000000z"/>
<path id="c_5d9b0d099c491f27a9f40b391fa98eef" d="M9.812500 -72.906250l41.890625 0.000000l0.000000 8.312500l-32.031250 0.000000l0.000000 21.484375l28.906250 0.000000l0.000000 8.296875l-28.906250 0.000000l0.000000 34.812500l-9.859375 0.000000z"/>
<path id="c_7b26b13f539f13a4c64eef23b6952d29" d="M4.890625 -31.390625l26.312500 0.000000l0.000000 8.000000l-26.312500 0.000000z"/>
<path id="c_b672e4bee30772019085dff1098f516d" d="M53.515625 -70.515625l0.000000 9.625000q-5.609375 -2.687500 -10.593750 -4.000000q-4.984375 -1.328125 -9.625000 -1.328125q-8.046875 0.000000 -12.421875 3.125000q-4.375000 3.125000 -4.375000 8.890625q0.000000 4.843750 2.906250 7.312500q2.906250 2.453125 11.015625 3.968750l5.953125 1.218750q11.031250 2.109375 16.281250 7.406250q5.250000 5.296875 5.250000 14.171875q0.000000 10.609375 -7.109375 16.078125q-7.093750 5.468750 -20.812500 5.468750q-5.171875 0.000000 -11.015625 -1.171875q-5.828125 -1.171875 -12.078125 -3.468750l0.000000 -10.156250q6.000000 3.359375 11.765625 5.078125q5.765625 1.703125 11.328125 1.703125q8.437500 0.000000 13.031250 -3.312500q4.593750 -3.328125 4.593750 -9.484375q0.000000 -5.359375 -3.296875 -8.390625q-3.296875 -3.031250 -10.812500 -4.546875l-6.015625 -1.171875q-11.031250 -2.187500 -15.968750 -6.875000q-4.921875 -4.687500 -4.921875 -13.046875q0.000000 -9.671875 6.812500 -15.234375q6.812500 -5.562500 18.765625 -5.562500q5.140625 0.000000 10.453125 0.937500q5.328125 0.921875 10.890625 2.765625"/>
<path id="c_ae70b0af174184799fa4976b9c5da571" d="M28.609375 -0.000000l-27.828125 -72.906250l10.296875 0.000000l23.109375 61.375000l23.140625 -61.375000l10.250000 0.000000l-27.781250 72.906250z"/>
<path id="c_a469f8ee191679fe73f3b765bd271597" d="M64.406250 -67.281250l0.000000 10.390625q-4.984375 -4.640625 -10.625000 -6.921875q-5.640625 -2.296875 -11.984375 -2.296875q-12.500000 0.000000 -19.140625 7.640625q-6.640625 7.640625 -6.640625 22.093750q0.000000 14.406250 6.640625 22.046875q6.640625 7.640625 19.140625 7.640625q6.343750 0.000000 11.984375 -2.296875q5.640625 -2.296875 10.625000 -6.937500l0.000000 10.312500q-5.171875 3.515625 -10.968750 5.281250q-5.781250 1.750000 -12.218750 1.750000q-16.562500 0.000000 -26.093750 -10.125000q-9.515625 -10.140625 -9.515625 -27.671875q0.000000 -17.578125 9.515625 -27.703125q9.531250 -10.140625 26.093750 -10.140625q6.531250 0.000000 12.312500 1.734375q5.796875 1.734375 10.875000 5.203125"/>
<path id="c_83c92fcf7184248154f741f54a0382f5" d="M11.718750 -12.406250l10.296875 0.000000l0.000000 8.406250l-8.000000 15.625000l-6.296875 0.000000l4.000000 -15.625000z"/>
<path id="c_8c0379a31aa3b07b28207e25658c6113" d="M10.593750 -45.406250l62.593750 0.000000l0.000000 8.203125l-62.593750 0.000000zM10.593750 -25.484375l62.593750 0.000000l0.000000 8.296875l-62.593750 0.000000z"/>
<path id="c_2980d33c6bfe3d2427dc2327ab0525d7" d="M46.687500 -72.906250l26.500000 27.203125l-9.812500 0.000000l-21.484375 -19.281250l-21.484375 19.281250l-9.812500 0.000000l26.515625 -27.203125z"/>
<path id="c_7efa9804c2b4c09a4b614b91fdebee3d" d="M31.000000 -75.875000q-6.531250 11.218750 -9.718750 22.218750q-3.171875 10.984375 -3.171875 22.265625q0.000000 11.265625 3.203125 22.328125q3.203125 11.062500 9.687500 22.250000l-7.812500 0.000000q-7.312500 -11.484375 -10.953125 -22.562500q-3.640625 -11.078125 -3.640625 -22.015625q0.000000 -10.890625 3.609375 -21.921875q3.625000 -11.046875 10.984375 -22.562500z"/>
<path id="c_3dcfa38a02242cb63ec6726c6e70be7a" d="M40.578125 -39.312500q7.078125 1.515625 11.046875 6.312500q3.984375 4.781250 3.984375 11.812500q0.000000 10.781250 -7.421875 16.703125q-7.421875 5.906250 -21.093750 5.906250q-4.578125 0.000000 -9.437500 -0.906250q-4.859375 -0.906250 -10.031250 -2.718750l0.000000 -9.515625q4.093750 2.390625 8.968750 3.609375q4.890625 1.218750 10.218750 1.218750q9.265625 0.000000 14.125000 -3.656250q4.859375 -3.656250 4.859375 -10.640625q0.000000 -6.453125 -4.515625 -10.078125q-4.515625 -3.640625 -12.562500 -3.640625l-8.500000 0.000000l0.000000 -8.109375l8.890625 0.000000q7.265625 0.000000 11.125000 -2.906250q3.859375 -2.906250 3.859375 -8.375000q0.000000 -5.609375 -3.984375 -8.609375q-3.968750 -3.015625 -11.390625 -3.015625q-4.062500 0.000000 -8.703125 0.890625q-4.640625 0.875000 -10.203125 2.718750l0.000000 -8.781250q5.625000 -1.562500 10.531250 -2.343750q4.906250 -0.781250 9.250000 -0.781250q11.234375 0.000000 17.765625 5.109375q6.546875 5.093750 6.546875 13.781250q0.000000 6.062500 -3.468750 10.234375q-3.468750 4.171875 -9.859375 5.781250"/>
<path id="c_e96974be642f6eac0427d72f9cec6c19" d="M8.015625 -75.875000l7.812500 0.000000q7.312500 11.515625 10.953125 22.562500q3.640625 11.031250 3.640625 21.921875q0.000000 10.937500 -3.640625 22.015625q-3.640625 11.078125 -10.953125 22.562500l-7.812500 0.000000q6.484375 -11.187500 9.687500 -22.250000q3.203125 -11.062500 3.203125 -22.328125q0.000000 -11.281250 -3.203125 -22.265625q-3.203125 -11.000000 -9.687500 -22.218750"/>
</defs>
<g style="fill: #000000; opacity: 1.000000" transform="translate(237.846250,66.800625)scale(0.144000)">
<use xlink:href="#c_9e4b30cbdf32072672ded72e9074c4c9"/>
<use xlink:href="#c_5d9b0d099c491f27a9f40b391fa98eef" x="61.083984"/>
<use xlink:href="#c_7b26b13f539f13a4c64eef23b6952d29" x="118.603516"/>
<use xlink:href="#c_5099edb83619131346ae654950954dea" x="154.687500"/>
<use xlink:href="#c_6a63bda47b2f3da1cec6aadd80692cfe" x="182.470703"/>
<use xlink:href="#c_fe791a90f5471e2ab20a5ed41a7fa451" x="210.253906"/>
<use xlink:href="#c_0bce5afba2dc6b9024b26277c38ad8e8" x="273.632812"/>
<use xlink:href="#c_01d93a582460e35a7945ca50d148ffeb" x="335.156250"/>
<use xlink:href="#c_6ec8d5749226675394676a5d2a3b468b" x="396.435547"/>
<use xlink:href="#c_b672e4bee30772019085dff1098f516d" x="437.548828"/>
<use xlink:href="#c_ae70b0af174184799fa4976b9c5da571" x="501.025391"/>
<use xlink:href="#c_a469f8ee191679fe73f3b765bd271597" x="569.433594"/>
<use xlink:href="#c_83c92fcf7184248154f741f54a0382f5" x="639.257812"/>
<use xlink:href="#c_d41d8cd98f00b204e9800998ecf8427e" x="671.044922"/>
<use xlink:href="#c_a469f8ee191679fe73f3b765bd271597" x="702.832031"/>
<use xlink:href="#c_8c0379a31aa3b07b28207e25658c6113" x="772.656250"/>
<use xlink:href="#c_ed3f3ed3ebfbd18bcb9c012009a68ad1" x="856.445312"/>
<use xlink:href="#c_2980d33c6bfe3d2427dc2327ab0525d7" x="920.068359"/>
<use xlink:href="#c_bef35738d52871942e50b9de9b122bab" x="1003.857422"/>
<use xlink:href="#c_d41d8cd98f00b204e9800998ecf8427e" x="1067.480469"/>
<use xlink:href="#c_7efa9804c2b4c09a4b614b91fdebee3d" x="1099.267578"/>
<use xlink:href="#c_01d93a582460e35a7945ca50d148ffeb" x="1138.281250"/>
<use xlink:href="#c_6ec8d5749226675394676a5d2a3b468b" x="1199.560547"/>
<use xlink:href="#c_0bce5afba2dc6b9024b26277c38ad8e8" x="1238.423828"/>
<use xlink:href="#c_01d93a582460e35a7945ca50d148ffeb" x="1299.947266"/>
<use xlink:href="#c_d41d8cd98f00b204e9800998ecf8427e" x="1361.226562"/>
<use xlink:href="#c_8c0379a31aa3b07b28207e25658c6113" x="1393.013672"/>
<use xlink:href="#c_d41d8cd98f00b204e9800998ecf8427e" x="1476.802734"/>
<use xlink:href="#c_7a2040fe3b94fcd41d0a72c84e93b115" x="1508.589844"/>
<use xlink:href="#c_ed3e21196fb739f392806f09ca0594ef" x="1572.212891"/>
<use xlink:href="#c_3dcfa38a02242cb63ec6726c6e70be7a" x="1604.000000"/>
<use xlink:href="#c_42baa63129a918535c52adb20d687ea7" x="1667.623047"/>
<use xlink:href="#c_e96974be642f6eac0427d72f9cec6c19" x="1731.246094"/>
</g>
</g>
<g id="line2d39">
<path style="fill: none; stroke: #008000; stroke-width: 2.000000; stroke-linejoin: round; stroke-linecap: square;  opacity: 1.000000"  d="M201.846250 82.507500L222.006250 82.507500"/>
</g>
<g id="line2d40">
</g>
<g id="text17">
<g style="fill: #000000; opacity: 1.000000" transform="translate(237.846250,87.547500)scale(0.144000)">
<use xlink:href="#c_9e4b30cbdf32072672ded72e9074c4c9"/>
<use xlink:href="#c_5d9b0d099c491f27a9f40b391fa98eef" x="61.083984"/>
<use xlink:href="#c_7b26b13f539f13a4c64eef23b6952d29" x="118.603516"/>
<use xlink:href="#c_5099edb83619131346ae654950954dea" x="154.687500"/>
<use xlink:href="#c_6a63bda47b2f3da1cec6aadd80692cfe" x="182.470703"/>
<use xlink:href="#c_fe791a90f5471e2ab20a5ed41a7fa451" x="210.253906"/>
<use xlink:href="#c_0bce5afba2dc6b9024b26277c38ad8e8" x="273.632812"/>
<use xlink:href="#c_01d93a582460e35a7945ca50d148ffeb" x="335.156250"/>
<use xlink:href="#c_6ec8d5749226675394676a5d2a3b468b" x="396.435547"/>
<use xlink:href="#c_b672e4bee30772019085dff1098f516d" x="437.548828"/>
<use xlink:href="#c_ae70b0af174184799fa4976b9c5da571" x="501.025391"/>
<use xlink:href="#c_a469f8ee191679fe73f3b765bd271597" x="569.433594"/>
<use xlink:href="#c_83c92fcf7184248154f741f54a0382f5" x="639.257812"/>
<use xlink:href="#c_d41d8cd98f00b204e9800998ecf8427e" x="671.044922"/>
<use xlink:href="#c_a469f8ee191679fe73f3b765bd271597" x="702.832031"/>
<use xlink:href="#c_8c0379a31aa3b07b28207e25658c6113" x="772.656250"/>
<use xlink:href="#c_ed3f3ed3ebfbd18bcb9c012009a68ad1" x="856.445312"/>
<use xlink:href="#c_2980d33c6bfe3d2427dc2327ab0525d7" x="920.068359"/>
<use xlink:href="#c_ed3f3ed3ebfbd18bcb9c012009a68ad1" x="1003.857422"/>
<use xlink:href="#c_d41d8cd98f00b204e9800998ecf8427e" x="1067.480469"/>
<use xlink:href="#c_7efa9804c2b4c09a4b614b91fdebee3d" x="1099.267578"/>
<use xlink:href="#c_01d93a582460e35a7945ca50d148ffeb" x="1138.281250"/>
<use xlink:href="#c_6ec8d5749226675394676a5d2a3b468b" x="1199.560547"/>
<use xlink:href="#c_0bce5afba2dc6b9024b26277c38ad8e8" x="1238.423828"/>
<use xlink:href="#c_01d93a582460e35a7945ca50d148ffeb" x="1299.947266"/>
<use xlink:href="#c_d41d8cd98f00b204e9800998ecf8427e" x="1361.226562"/>
<use xlink:href="#c_8c0379a31aa3b07b28207e25658c6113" x="1393.013672"/>
<use xlink:href="#c_d41d8cd98f00b204e9800998ecf8427e" x="1476.802734"/>
<use xlink:href="#c_7a2040fe3b94fcd41d0a72c84e93b115" x="1508.589844"/>
<use xlink:href="#c_ed3e21196fb739f392806f09ca0594ef" x="1572.212891"/>
<use xlink:href="#c_3dcfa38a02242cb63ec6726c6e70be7a" x="1604.000000"/>
<use xlink:href="#c_ed3f3ed3ebfbd18bcb9c012009a68ad1" x="1667.623047"/>
<use xlink:href="#c_e96974be642f6eac0427d72f9cec6c19" x="1731.246094"/>
</g>
</g>
<g id="line2d41">
<path style="fill: none; stroke: #ff0000; stroke-width: 2.000000; stroke-linejoin: round; stroke-linecap: square;  opacity: 1.000000"  d="M201.846250 103.254375L222.006250 103.254375"/>
</g>
<g id="line2d42">
</g>
<g id="text18">
<g style="fill: #000000; opacity: 1.000000" transform="translate(237.846250,108.294375)scale(0.144000)">
<use xlink:href="#c_9e4b30cbdf32072672ded72e9074c4c9"/>
<use xlink:href="#c_5d9b0d099c491f27a9f40b391fa98eef" x="61.083984"/>
<use xlink:href="#c_7b26b13f539f13a4c64eef23b6952d29" x="118.603516"/>
<use xlink:href="#c_5099edb83619131346ae654950954dea" x="154.687500"/>
<use xlink:href="#c_6a63bda47b2f3da1cec6aadd80692cfe" x="182.470703"/>
<use xlink:href="#c_fe791a90f5471e2ab20a5ed41a7fa451" x="210.253906"/>
<use xlink:href="#c_0bce5afba2dc6b9024b26277c38ad8e8" x="273.632812"/>
<use xlink:href="#c_01d93a582460e35a7945ca50d148ffeb" x="335.156250"/>
<use xlink:href="#c_6ec8d5749226675394676a5d2a3b468b" x="396.435547"/>
<use xlink:href="#c_b672e4bee30772019085dff1098f516d" x="437.548828"/>
<use xlink:href="#c_ae70b0af174184799fa4976b9c5da571" x="501.025391"/>
<use xlink:href="#c_a469f8ee191679fe73f3b765bd271597" x="569.433594"/>
<use xlink:href="#c_83c92fcf7184248154f741f54a0382f5" x="639.257812"/>
<use xlink:href="#c_d41d8cd98f00b204e9800998ecf8427e" x="671.044922"/>
<use xlink:href="#c_a469f8ee191679fe73f3b765bd271597" x="702.832031"/>
<use xlink:href="#c_8c0379a31aa3b07b28207e25658c6113" x="772.656250"/>
<use xlink:href="#c_ed3f3ed3ebfbd18bcb9c012009a68ad1" x="856.445312"/>
<use xlink:href="#c_2980d33c6bfe3d2427dc2327ab0525d7" x="920.068359"/>
<use xlink:href="#c_7b26b13f539f13a4c64eef23b6952d29" x="1003.857422"/>
<use xlink:href="#c_42baa63129a918535c52adb20d687ea7" x="1039.941406"/>
<use xlink:href="#c_7a2040fe3b94fcd41d0a72c84e93b115" x="1103.564453"/>
<use xlink:href="#c_d41d8cd98f00b204e9800998ecf8427e" x="1167.187500"/>
<use xlink:href="#c_7efa9804c2b4c09a4b614b91fdebee3d" x="1198.974609"/>
<use xlink:href="#c_01d93a582460e35a7945ca50d148ffeb" x="1237.988281"/>
<use xlink:href="#c_6ec8d5749226675394676a5d2a3b468b" x="1299.267578"/>
<use xlink:href="#c_0bce5afba2dc6b9024b26277c38ad8e8" x="1338.130859"/>
<use xlink:href="#c_01d93a582460e35a7945ca50d148ffeb" x="1399.654297"/>
<use xlink:href="#c_d41d8cd98f00b204e9800998ecf8427e" x="1460.933594"/>
<use xlink:href="#c_8c0379a31aa3b07b28207e25658c6113" x="1492.720703"/>
<use xlink:href="#c_d41d8cd98f00b204e9800998ecf8427e" x="1576.509766"/>
<use xlink:href="#c_7a2040fe3b94fcd41d0a72c84e93b115" x="1608.296875"/>
<use xlink:href="#c_ed3e21196fb739f392806f09ca0594ef" x="1671.919922"/>
<use xlink:href="#c_7a2040fe3b94fcd41d0a72c84e93b115" x="1703.707031"/>
<use xlink:href="#c_7a2040fe3b94fcd41d0a72c84e93b115" x="1767.330078"/>
<use xlink:href="#c_e96974be642f6eac0427d72f9cec6c19" x="1830.953125"/>
</g>
</g>
<g id="line2d43">
<path style="fill: none; stroke: #00bfbf; stroke-width: 2.000000; stroke-linejoin: round; stroke-linecap: square;  opacity: 1.000000"  d="M201.846250 124.001250L222.006250 124.001250"/>
</g>
<g id="line2d44">
</g>
<g id="text19">
<g style="fill: #000000; opacity: 1.000000" transform="translate(237.846250,129.041250)scale(0.144000)">
<use xlink:href="#c_9e4b30cbdf32072672ded72e9074c4c9"/>
<use xlink:href="#c_5d9b0d099c491f27a9f40b391fa98eef" x="61.083984"/>
<use xlink:href="#c_7b26b13f539f13a4c64eef23b6952d29" x="118.603516"/>
<use xlink:href="#c_5099edb83619131346ae654950954dea" x="154.687500"/>
<use xlink:href="#c_6a63bda47b2f3da1cec6aadd80692cfe" x="182.470703"/>
<use xlink:href="#c_fe791a90f5471e2ab20a5ed41a7fa451" x="210.253906"/>
<use xlink:href="#c_0bce5afba2dc6b9024b26277c38ad8e8" x="273.632812"/>
<use xlink:href="#c_01d93a582460e35a7945ca50d148ffeb" x="335.156250"/>
<use xlink:href="#c_6ec8d5749226675394676a5d2a3b468b" x="396.435547"/>
<use xlink:href="#c_b672e4bee30772019085dff1098f516d" x="437.548828"/>
<use xlink:href="#c_ae70b0af174184799fa4976b9c5da571" x="501.025391"/>
<use xlink:href="#c_a469f8ee191679fe73f3b765bd271597" x="569.433594"/>
<use xlink:href="#c_83c92fcf7184248154f741f54a0382f5" x="639.257812"/>
<use xlink:href="#c_d41d8cd98f00b204e9800998ecf8427e" x="671.044922"/>
<use xlink:href="#c_a469f8ee191679fe73f3b765bd271597" x="702.832031"/>
<use xlink:href="#c_8c0379a31aa3b07b28207e25658c6113" x="772.656250"/>
<use xlink:href="#c_ed3f3ed3ebfbd18bcb9c012009a68ad1" x="856.445312"/>
<use xlink:href="#c_2980d33c6bfe3d2427dc2327ab0525d7" x="920.068359"/>
<use xlink:href="#c_7a2040fe3b94fcd41d0a72c84e93b115" x="1003.857422"/>
<use xlink:href="#c_d41d8cd98f00b204e9800998ecf8427e" x="1067.480469"/>
<use xlink:href="#c_7efa9804c2b4c09a4b614b91fdebee3d" x="1099.267578"/>
<use xlink:href="#c_01d93a582460e35a7945ca50d148ffeb" x="1138.281250"/>
<use xlink:href="#c_6ec8d5749226675394676a5d2a3b468b" x="1199.560547"/>
<use xlink:href="#c_0bce5afba2dc6b9024b26277c38ad8e8" x="1238.423828"/>
<use xlink:href="#c_01d93a582460e35a7945ca50d148ffeb" x="1299.947266"/>
<use xlink:href="#c_d41d8cd98f00b204e9800998ecf8427e" x="1361.226562"/>
<use xlink:href="#c_8c0379a31aa3b07b28207e25658c6113" x="1393.013672"/>
<use xlink:href="#c_d41d8cd98f00b204e9800998ecf8427e" x="1476.802734"/>
<use xlink:href="#c_7a2040fe3b94fcd41d0a72c84e93b115" x="1508.589844"/>
<use xlink:href="#c_ed3e21196fb739f392806f09ca0594ef" x="1572.212891"/>
<use xlink:href="#c_3dcfa38a02242cb63ec6726c6e70be7a" x="1604.000000"/>
<use xlink:href="#c_7a2040fe3b94fcd41d0a72c84e93b115" x="1667.623047"/>
<use xlink:href="#c_e96974be642f6eac0427d72f9cec6c19" x="1731.246094"/>
</g>
</g>
<g id="line2d45">
<path style="fill: none; stroke: #bf00bf; stroke-width: 2.000000; stroke-linejoin: round; stroke-linecap: square;  opacity: 1.000000"  d="M201.846250 144.748125L222.006250 144.748125"/>
</g>
<g id="line2d46">
</g>
<g id="text20">
<g style="fill: #000000; opacity: 1.000000" transform="translate(237.846250,149.788125)scale(0.144000)">
<use xlink:href="#c_9e4b30cbdf32072672ded72e9074c4c9"/>
<use xlink:href="#c_5d9b0d099c491f27a9f40b391fa98eef" x="61.083984"/>
<use xlink:href="#c_7b26b13f539f13a4c64eef23b6952d29" x="118.603516"/>
<use xlink:href="#c_5099edb83619131346ae654950954dea" x="154.687500"/>
<use xlink:href="#c_6a63bda47b2f3da1cec6aadd80692cfe" x="182.470703"/>
<use xlink:href="#c_fe791a90f5471e2ab20a5ed41a7fa451" x="210.253906"/>
<use xlink:href="#c_0bce5afba2dc6b9024b26277c38ad8e8" x="273.632812"/>
<use xlink:href="#c_01d93a582460e35a7945ca50d148ffeb" x="335.156250"/>
<use xlink:href="#c_6ec8d5749226675394676a5d2a3b468b" x="396.435547"/>
<use xlink:href="#c_b672e4bee30772019085dff1098f516d" x="437.548828"/>
<use xlink:href="#c_ae70b0af174184799fa4976b9c5da571" x="501.025391"/>
<use xlink:href="#c_a469f8ee191679fe73f3b765bd271597" x="569.433594"/>
<use xlink:href="#c_83c92fcf7184248154f741f54a0382f5" x="639.257812"/>
<use xlink:href="#c_d41d8cd98f00b204e9800998ecf8427e" x="671.044922"/>
<use xlink:href="#c_a469f8ee191679fe73f3b765bd271597" x="702.832031"/>
<use xlink:href="#c_8c0379a31aa3b07b28207e25658c6113" x="772.656250"/>
<use xlink:href="#c_ed3f3ed3ebfbd18bcb9c012009a68ad1" x="856.445312"/>
<use xlink:href="#c_2980d33c6bfe3d2427dc2327ab0525d7" x="920.068359"/>
<use xlink:href="#c_7b26b13f539f13a4c64eef23b6952d29" x="1003.857422"/>
<use xlink:href="#c_42baa63129a918535c52adb20d687ea7" x="1039.941406"/>
<use xlink:href="#c_ed3f3ed3ebfbd18bcb9c012009a68ad1" x="1103.564453"/>
<use xlink:href="#c_d41d8cd98f00b204e9800998ecf8427e" x="1167.187500"/>
<use xlink:href="#c_7efa9804c2b4c09a4b614b91fdebee3d" x="1198.974609"/>
<use xlink:href="#c_01d93a582460e35a7945ca50d148ffeb" x="1237.988281"/>
<use xlink:href="#c_6ec8d5749226675394676a5d2a3b468b" x="1299.267578"/>
<use xlink:href="#c_0bce5afba2dc6b9024b26277c38ad8e8" x="1338.130859"/>
<use xlink:href="#c_01d93a582460e35a7945ca50d148ffeb" x="1399.654297"/>
<use xlink:href="#c_d41d8cd98f00b204e9800998ecf8427e" x="1460.933594"/>
<use xlink:href="#c_8c0379a31aa3b07b28207e25658c6113" x="1492.720703"/>
<use xlink:href="#c_d41d8cd98f00b204e9800998ecf8427e" x="1576.509766"/>
<use xlink:href="#c_7a2040fe3b94fcd41d0a72c84e93b115" x="1608.296875"/>
<use xlink:href="#c_ed3e21196fb739f392806f09ca0594ef" x="1671.919922"/>
<use xlink:href="#c_7a2040fe3b94fcd41d0a72c84e93b115" x="1703.707031"/>
<use xlink:href="#c_7a2040fe3b94fcd41d0a72c84e93b115" x="1767.330078"/>
<use xlink:href="#c_e96974be642f6eac0427d72f9cec6c19" x="1830.953125"/>
</g>
</g>
<g id="line2d47">
<path style="fill: none; stroke: #bfbf00; stroke-width: 2.000000; stroke-linejoin: round; stroke-linecap: square;  opacity: 1.000000"  d="M201.846250 165.495000L222.006250 165.495000"/>
</g>
<g id="line2d48">
</g>
<g id="text21">
<g style="fill: #000000; opacity: 1.000000" transform="translate(237.846250,170.535000)scale(0.144000)">
<use xlink:href="#c_9e4b30cbdf32072672ded72e9074c4c9"/>
<use xlink:href="#c_5d9b0d099c491f27a9f40b391fa98eef" x="61.083984"/>
<use xlink:href="#c_7b26b13f539f13a4c64eef23b6952d29" x="118.603516"/>
<use xlink:href="#c_5099edb83619131346ae654950954dea" x="154.687500"/>
<use xlink:href="#c_6a63bda47b2f3da1cec6aadd80692cfe" x="182.470703"/>
<use xlink:href="#c_fe791a90f5471e2ab20a5ed41a7fa451" x="210.253906"/>
<use xlink:href="#c_0bce5afba2dc6b9024b26277c38ad8e8" x="273.632812"/>
<use xlink:href="#c_01d93a582460e35a7945ca50d148ffeb" x="335.156250"/>
<use xlink:href="#c_6ec8d5749226675394676a5d2a3b468b" x="396.435547"/>
<use xlink:href="#c_b672e4bee30772019085dff1098f516d" x="437.548828"/>
<use xlink:href="#c_ae70b0af174184799fa4976b9c5da571" x="501.025391"/>
<use xlink:href="#c_a469f8ee191679fe73f3b765bd271597" x="569.433594"/>
<use xlink:href="#c_83c92fcf7184248154f741f54a0382f5" x="639.257812"/>
<use xlink:href="#c_d41d8cd98f00b204e9800998ecf8427e" x="671.044922"/>
<use xlink:href="#c_a469f8ee191679fe73f3b765bd271597" x="702.832031"/>
<use xlink:href="#c_8c0379a31aa3b07b28207e25658c6113" x="772.656250"/>
<use xlink:href="#c_ed3f3ed3ebfbd18bcb9c012009a68ad1" x="856.445312"/>
<use xlink:href="#c_2980d33c6bfe3d2427dc2327ab0525d7" x="920.068359"/>
<use xlink:href="#c_a0416418d96557a09b8c1332d34883ba" x="1003.857422"/>
<use xlink:href="#c_d41d8cd98f00b204e9800998ecf8427e" x="1067.480469"/>
<use xlink:href="#c_7efa9804c2b4c09a4b614b91fdebee3d" x="1099.267578"/>
<use xlink:href="#c_01d93a582460e35a7945ca50d148ffeb" x="1138.281250"/>
<use xlink:href="#c_6ec8d5749226675394676a5d2a3b468b" x="1199.560547"/>
<use xlink:href="#c_0bce5afba2dc6b9024b26277c38ad8e8" x="1238.423828"/>
<use xlink:href="#c_01d93a582460e35a7945ca50d148ffeb" x="1299.947266"/>
<use xlink:href="#c_d41d8cd98f00b204e9800998ecf8427e" x="1361.226562"/>
<use xlink:href="#c_8c0379a31aa3b07b28207e25658c6113" x="1393.013672"/>
<use xlink:href="#c_d41d8cd98f00b204e9800998ecf8427e" x="1476.802734"/>
<use xlink:href="#c_7a2040fe3b94fcd41d0a72c84e93b115" x="1508.589844"/>
<use xlink:href="#c_ed3e21196fb739f392806f09ca0594ef" x="1572.212891"/>
<use xlink:href="#c_3dcfa38a02242cb63ec6726c6e70be7a" x="1604.000000"/>
<use xlink:href="#c_42baa63129a918535c52adb20d687ea7" x="1667.623047"/>
<use xlink:href="#c_e96974be642f6eac0427d72f9cec6c19" x="1731.246094"/>
</g>
</g>
<g id="line2d49">
<path style="fill: none; stroke: #000000; stroke-width: 2.000000; stroke-linejoin: round; stroke-linecap: square;  opacity: 1.000000"  d="M201.846250 186.241875L222.006250 186.241875"/>
</g>
<g id="line2d50">
</g>
<g id="text22">
<g style="fill: #000000; opacity: 1.000000" transform="translate(237.846250,191.281875)scale(0.144000)">
<use xlink:href="#c_9e4b30cbdf32072672ded72e9074c4c9"/>
<use xlink:href="#c_5d9b0d099c491f27a9f40b391fa98eef" x="61.083984"/>
<use xlink:href="#c_7b26b13f539f13a4c64eef23b6952d29" x="118.603516"/>
<use xlink:href="#c_5099edb83619131346ae654950954dea" x="154.687500"/>
<use xlink:href="#c_6a63bda47b2f3da1cec6aadd80692cfe" x="182.470703"/>
<use xlink:href="#c_fe791a90f5471e2ab20a5ed41a7fa451" x="210.253906"/>
<use xlink:href="#c_0bce5afba2dc6b9024b26277c38ad8e8" x="273.632812"/>
<use xlink:href="#c_01d93a582460e35a7945ca50d148ffeb" x="335.156250"/>
<use xlink:href="#c_6ec8d5749226675394676a5d2a3b468b" x="396.435547"/>
<use xlink:href="#c_b672e4bee30772019085dff1098f516d" x="437.548828"/>
<use xlink:href="#c_ae70b0af174184799fa4976b9c5da571" x="501.025391"/>
<use xlink:href="#c_a469f8ee191679fe73f3b765bd271597" x="569.433594"/>
<use xlink:href="#c_83c92fcf7184248154f741f54a0382f5" x="639.257812"/>
<use xlink:href="#c_d41d8cd98f00b204e9800998ecf8427e" x="671.044922"/>
<use xlink:href="#c_a469f8ee191679fe73f3b765bd271597" x="702.832031"/>
<use xlink:href="#c_8c0379a31aa3b07b28207e25658c6113" x="772.656250"/>
<use xlink:href="#c_ed3f3ed3ebfbd18bcb9c012009a68ad1" x="856.445312"/>
<use xlink:href="#c_2980d33c6bfe3d2427dc2327ab0525d7" x="920.068359"/>
<use xlink:href="#c_cc8d6d580d1b10c8632f7a42cd53db8a" x="1003.857422"/>
<use xlink:href="#c_d41d8cd98f00b204e9800998ecf8427e" x="1067.480469"/>
<use xlink:href="#c_7efa9804c2b4c09a4b614b91fdebee3d" x="1099.267578"/>
<use xlink:href="#c_01d93a582460e35a7945ca50d148ffeb" x="1138.281250"/>
<use xlink:href="#c_6ec8d5749226675394676a5d2a3b468b" x="1199.560547"/>
<use xlink:href="#c_0bce5afba2dc6b9024b26277c38ad8e8" x="1238.423828"/>
<use xlink:href="#c_01d93a582460e35a7945ca50d148ffeb" x="1299.947266"/>
<use xlink:href="#c_d41d8cd98f00b204e9800998ecf8427e" x="1361.226562"/>
<use xlink:href="#c_8c0379a31aa3b07b28207e25658c6113" x="1393.013672"/>
<use xlink:href="#c_d41d8cd98f00b204e9800998ecf8427e" x="1476.802734"/>
<use xlink:href="#c_7a2040fe3b94fcd41d0a72c84e93b115" x="1508.589844"/>
<use xlink:href="#c_ed3e21196fb739f392806f09ca0594ef" x="1572.212891"/>
<use xlink:href="#c_3dcfa38a02242cb63ec6726c6e70be7a" x="1604.000000"/>
<use xlink:href="#c_ed3f3ed3ebfbd18bcb9c012009a68ad1" x="1667.623047"/>
<use xlink:href="#c_e96974be642f6eac0427d72f9cec6c19" x="1731.246094"/>
</g>
</g>
<g id="line2d51">
<path style="fill: none; stroke: #0000ff; stroke-width: 2.000000; stroke-linejoin: round; stroke-linecap: square;  opacity: 1.000000"  d="M201.846250 206.988750L222.006250 206.988750"/>
</g>
<g id="line2d52">
</g>
<g id="text23">
<g style="fill: #000000; opacity: 1.000000" transform="translate(237.846250,212.028750)scale(0.144000)">
<use xlink:href="#c_9e4b30cbdf32072672ded72e9074c4c9"/>
<use xlink:href="#c_5d9b0d099c491f27a9f40b391fa98eef" x="61.083984"/>
<use xlink:href="#c_7b26b13f539f13a4c64eef23b6952d29" x="118.603516"/>
<use xlink:href="#c_5099edb83619131346ae654950954dea" x="154.687500"/>
<use xlink:href="#c_6a63bda47b2f3da1cec6aadd80692cfe" x="182.470703"/>
<use xlink:href="#c_fe791a90f5471e2ab20a5ed41a7fa451" x="210.253906"/>
<use xlink:href="#c_0bce5afba2dc6b9024b26277c38ad8e8" x="273.632812"/>
<use xlink:href="#c_01d93a582460e35a7945ca50d148ffeb" x="335.156250"/>
<use xlink:href="#c_6ec8d5749226675394676a5d2a3b468b" x="396.435547"/>
<use xlink:href="#c_b672e4bee30772019085dff1098f516d" x="437.548828"/>
<use xlink:href="#c_ae70b0af174184799fa4976b9c5da571" x="501.025391"/>
<use xlink:href="#c_a469f8ee191679fe73f3b765bd271597" x="569.433594"/>
<use xlink:href="#c_83c92fcf7184248154f741f54a0382f5" x="639.257812"/>
<use xlink:href="#c_d41d8cd98f00b204e9800998ecf8427e" x="671.044922"/>
<use xlink:href="#c_a469f8ee191679fe73f3b765bd271597" x="702.832031"/>
<use xlink:href="#c_8c0379a31aa3b07b28207e25658c6113" x="772.656250"/>
<use xlink:href="#c_ed3f3ed3ebfbd18bcb9c012009a68ad1" x="856.445312"/>
<use xlink:href="#c_2980d33c6bfe3d2427dc2327ab0525d7" x="920.068359"/>
<use xlink:href="#c_7b26b13f539f13a4c64eef23b6952d29" x="1003.857422"/>
<use xlink:href="#c_ed3f3ed3ebfbd18bcb9c012009a68ad1" x="1039.941406"/>
<use xlink:href="#c_d41d8cd98f00b204e9800998ecf8427e" x="1103.564453"/>
<use xlink:href="#c_7efa9804c2b4c09a4b614b91fdebee3d" x="1135.351563"/>
<use xlink:href="#c_01d93a582460e35a7945ca50d148ffeb" x="1174.365234"/>
<use xlink:href="#c_6ec8d5749226675394676a5d2a3b468b" x="1235.644531"/>
<use xlink:href="#c_0bce5afba2dc6b9024b26277c38ad8e8" x="1274.507812"/>
<use xlink:href="#c_01d93a582460e35a7945ca50d148ffeb" x="1336.031250"/>
<use xlink:href="#c_d41d8cd98f00b204e9800998ecf8427e" x="1397.310547"/>
<use xlink:href="#c_8c0379a31aa3b07b28207e25658c6113" x="1429.097656"/>
<use xlink:href="#c_d41d8cd98f00b204e9800998ecf8427e" x="1512.886719"/>
<use xlink:href="#c_7a2040fe3b94fcd41d0a72c84e93b115" x="1544.673828"/>
<use xlink:href="#c_ed3e21196fb739f392806f09ca0594ef" x="1608.296875"/>
<use xlink:href="#c_ed3f3ed3ebfbd18bcb9c012009a68ad1" x="1640.083984"/>
<use xlink:href="#c_cc8d6d580d1b10c8632f7a42cd53db8a" x="1703.707031"/>
<use xlink:href="#c_e96974be642f6eac0427d72f9cec6c19" x="1767.330078"/>
</g>
</g>
<g id="line2d53">
<path style="fill: none; stroke: #008000; stroke-width: 2.000000; stroke-linejoin: round; stroke-linecap: square;  opacity: 1.000000"  d="M201.846250 227.735625L222.006250 227.735625"/>
</g>
<g id="line2d54">
</g>
<g id="text24">
<g style="fill: #000000; opacity: 1.000000" transform="translate(237.846250,232.775625)scale(0.144000)">
<use xlink:href="#c_9e4b30cbdf32072672ded72e9074c4c9"/>
<use xlink:href="#c_5d9b0d099c491f27a9f40b391fa98eef" x="61.083984"/>
<use xlink:href="#c_7b26b13f539f13a4c64eef23b6952d29" x="118.603516"/>
<use xlink:href="#c_5099edb83619131346ae654950954dea" x="154.687500"/>
<use xlink:href="#c_6a63bda47b2f3da1cec6aadd80692cfe" x="182.470703"/>
<use xlink:href="#c_fe791a90f5471e2ab20a5ed41a7fa451" x="210.253906"/>
<use xlink:href="#c_0bce5afba2dc6b9024b26277c38ad8e8" x="273.632812"/>
<use xlink:href="#c_01d93a582460e35a7945ca50d148ffeb" x="335.156250"/>
<use xlink:href="#c_6ec8d5749226675394676a5d2a3b468b" x="396.435547"/>
<use xlink:href="#c_b672e4bee30772019085dff1098f516d" x="437.548828"/>
<use xlink:href="#c_ae70b0af174184799fa4976b9c5da571" x="501.025391"/>
<use xlink:href="#c_a469f8ee191679fe73f3b765bd271597" x="569.433594"/>
<use xlink:href="#c_83c92fcf7184248154f741f54a0382f5" x="639.257812"/>
<use xlink:href="#c_d41d8cd98f00b204e9800998ecf8427e" x="671.044922"/>
<use xlink:href="#c_a469f8ee191679fe73f3b765bd271597" x="702.832031"/>
<use xlink:href="#c_8c0379a31aa3b07b28207e25658c6113" x="772.656250"/>
<use xlink:href="#c_ed3f3ed3ebfbd18bcb9c012009a68ad1" x="856.445312"/>
<use xlink:href="#c_2980d33c6bfe3d2427dc2327ab0525d7" x="920.068359"/>
<use xlink:href="#c_7b26b13f539f13a4c64eef23b6952d29" x="1003.857422"/>
<use xlink:href="#c_a0416418d96557a09b8c1332d34883ba" x="1039.941406"/>
<use xlink:href="#c_d41d8cd98f00b204e9800998ecf8427e" x="1103.564453"/>
<use xlink:href="#c_7efa9804c2b4c09a4b614b91fdebee3d" x="1135.351563"/>
<use xlink:href="#c_01d93a582460e35a7945ca50d148ffeb" x="1174.365234"/>
<use xlink:href="#c_6ec8d5749226675394676a5d2a3b468b" x="1235.644531"/>
<use xlink:href="#c_0bce5afba2dc6b9024b26277c38ad8e8" x="1274.507812"/>
<use xlink:href="#c_01d93a582460e35a7945ca50d148ffeb" x="1336.031250"/>
<use xlink:href="#c_d41d8cd98f00b204e9800998ecf8427e" x="1397.310547"/>
<use xlink:href="#c_8c0379a31aa3b07b28207e25658c6113" x="1429.097656"/>
<use xlink:href="#c_d41d8cd98f00b204e9800998ecf8427e" x="1512.886719"/>
<use xlink:href="#c_7a2040fe3b94fcd41d0a72c84e93b115" x="1544.673828"/>
<use xlink:href="#c_ed3e21196fb739f392806f09ca0594ef" x="1608.296875"/>
<use xlink:href="#c_ed3f3ed3ebfbd18bcb9c012009a68ad1" x="1640.083984"/>
<use xlink:href="#c_42baa63129a918535c52adb20d687ea7" x="1703.707031"/>
<use xlink:href="#c_e96974be642f6eac0427d72f9cec6c19" x="1767.330078"/>
</g>
</g>
<g id="line2d55">
<path style="fill: none; stroke: #ff0000; stroke-width: 2.000000; stroke-linejoin: round; stroke-linecap: square;  opacity: 1.000000"  d="M201.846250 248.482500L222.006250 248.482500"/>
</g>
<g id="line2d56">
</g>
<g id="text25">
<g style="fill: #000000; opacity: 1.000000" transform="translate(237.846250,253.522500)scale(0.144000)">
<use xlink:href="#c_9e4b30cbdf32072672ded72e9074c4c9"/>
<use xlink:href="#c_5d9b0d099c491f27a9f40b391fa98eef" x="61.083984"/>
<use xlink:href="#c_7b26b13f539f13a4c64eef23b6952d29" x="118.603516"/>
<use xlink:href="#c_5099edb83619131346ae654950954dea" x="154.687500"/>
<use xlink:href="#c_6a63bda47b2f3da1cec6aadd80692cfe" x="182.470703"/>
<use xlink:href="#c_fe791a90f5471e2ab20a5ed41a7fa451" x="210.253906"/>
<use xlink:href="#c_0bce5afba2dc6b9024b26277c38ad8e8" x="273.632812"/>
<use xlink:href="#c_01d93a582460e35a7945ca50d148ffeb" x="335.156250"/>
<use xlink:href="#c_6ec8d5749226675394676a5d2a3b468b" x="396.435547"/>
<use xlink:href="#c_b672e4bee30772019085dff1098f516d" x="437.548828"/>
<use xlink:href="#c_ae70b0af174184799fa4976b9c5da571" x="501.025391"/>
<use xlink:href="#c_a469f8ee191679fe73f3b765bd271597" x="569.433594"/>
<use xlink:href="#c_83c92fcf7184248154f741f54a0382f5" x="639.257812"/>
<use xlink:href="#c_d41d8cd98f00b204e9800998ecf8427e" x="671.044922"/>
<use xlink:href="#c_a469f8ee191679fe73f3b765bd271597" x="702.832031"/>
<use xlink:href="#c_8c0379a31aa3b07b28207e25658c6113" x="772.656250"/>
<use xlink:href="#c_ed3f3ed3ebfbd18bcb9c012009a68ad1" x="856.445312"/>
<use xlink:href="#c_2980d33c6bfe3d2427dc2327ab0525d7" x="920.068359"/>
<use xlink:href="#c_7b26b13f539f13a4c64eef23b6952d29" x="1003.857422"/>
<use xlink:href="#c_cc8d6d580d1b10c8632f7a42cd53db8a" x="1039.941406"/>
<use xlink:href="#c_d41d8cd98f00b204e9800998ecf8427e" x="1103.564453"/>
<use xlink:href="#c_7efa9804c2b4c09a4b614b91fdebee3d" x="1135.351563"/>
<use xlink:href="#c_01d93a582460e35a7945ca50d148ffeb" x="1174.365234"/>
<use xlink:href="#c_6ec8d5749226675394676a5d2a3b468b" x="1235.644531"/>
<use xlink:href="#c_0bce5afba2dc6b9024b26277c38ad8e8" x="1274.507812"/>
<use xlink:href="#c_01d93a582460e35a7945ca50d148ffeb" x="1336.031250"/>
<use xlink:href="#c_d41d8cd98f00b204e9800998ecf8427e" x="1397.310547"/>
<use xlink:href="#c_8c0379a31aa3b07b28207e25658c6113" x="1429.097656"/>
<use xlink:href="#c_d41d8cd98f00b204e9800998ecf8427e" x="1512.886719"/>
<use xlink:href="#c_7a2040fe3b94fcd41d0a72c84e93b115" x="1544.673828"/>
<use xlink:href="#c_ed3e21196fb739f392806f09ca0594ef" x="1608.296875"/>
<use xlink:href="#c_42baa63129a918535c52adb20d687ea7" x="1640.083984"/>
<use xlink:href="#c_a0416418d96557a09b8c1332d34883ba" x="1703.707031"/>
<use xlink:href="#c_e96974be642f6eac0427d72f9cec6c19" x="1767.330078"/>
</g>
</g>
<g id="line2d57">
<path style="fill: none; stroke: #00bfbf; stroke-width: 2.000000; stroke-linejoin: round; stroke-linecap: square;  opacity: 1.000000"  d="M201.846250 269.229375L222.006250 269.229375"/>
</g>
<g id="line2d58">
</g>
<g id="text26">
<g style="fill: #000000; opacity: 1.000000" transform="translate(237.846250,274.269375)scale(0.144000)">
<use xlink:href="#c_9e4b30cbdf32072672ded72e9074c4c9"/>
<use xlink:href="#c_5d9b0d099c491f27a9f40b391fa98eef" x="61.083984"/>
<use xlink:href="#c_7b26b13f539f13a4c64eef23b6952d29" x="118.603516"/>
<use xlink:href="#c_5099edb83619131346ae654950954dea" x="154.687500"/>
<use xlink:href="#c_6a63bda47b2f3da1cec6aadd80692cfe" x="182.470703"/>
<use xlink:href="#c_fe791a90f5471e2ab20a5ed41a7fa451" x="210.253906"/>
<use xlink:href="#c_0bce5afba2dc6b9024b26277c38ad8e8" x="273.632812"/>
<use xlink:href="#c_01d93a582460e35a7945ca50d148ffeb" x="335.156250"/>
<use xlink:href="#c_6ec8d5749226675394676a5d2a3b468b" x="396.435547"/>
<use xlink:href="#c_b672e4bee30772019085dff1098f516d" x="437.548828"/>
<use xlink:href="#c_ae70b0af174184799fa4976b9c5da571" x="501.025391"/>
<use xlink:href="#c_a469f8ee191679fe73f3b765bd271597" x="569.433594"/>
<use xlink:href="#c_83c92fcf7184248154f741f54a0382f5" x="639.257812"/>
<use xlink:href="#c_d41d8cd98f00b204e9800998ecf8427e" x="671.044922"/>
<use xlink:href="#c_a469f8ee191679fe73f3b765bd271597" x="702.832031"/>
<use xlink:href="#c_8c0379a31aa3b07b28207e25658c6113" x="772.656250"/>
<use xlink:href="#c_ed3f3ed3ebfbd18bcb9c012009a68ad1" x="856.445312"/>
<use xlink:href="#c_2980d33c6bfe3d2427dc2327ab0525d7" x="920.068359"/>
<use xlink:href="#c_7b26b13f539f13a4c64eef23b6952d29" x="1003.857422"/>
<use xlink:href="#c_bef35738d52871942e50b9de9b122bab" x="1039.941406"/>
<use xlink:href="#c_d41d8cd98f00b204e9800998ecf8427e" x="1103.564453"/>
<use xlink:href="#c_7efa9804c2b4c09a4b614b91fdebee3d" x="1135.351563"/>
<use xlink:href="#c_01d93a582460e35a7945ca50d148ffeb" x="1174.365234"/>
<use xlink:href="#c_6ec8d5749226675394676a5d2a3b468b" x="1235.644531"/>
<use xlink:href="#c_0bce5afba2dc6b9024b26277c38ad8e8" x="1274.507812"/>
<use xlink:href="#c_01d93a582460e35a7945ca50d148ffeb" x="1336.031250"/>
<use xlink:href="#c_d41d8cd98f00b204e9800998ecf8427e" x="1397.310547"/>
<use xlink:href="#c_8c0379a31aa3b07b28207e25658c6113" x="1429.097656"/>
<use xlink:href="#c_d41d8cd98f00b204e9800998ecf8427e" x="1512.886719"/>
<use xlink:href="#c_7a2040fe3b94fcd41d0a72c84e93b115" x="1544.673828"/>
<use xlink:href="#c_ed3e21196fb739f392806f09ca0594ef" x="1608.296875"/>
<use xlink:href="#c_7a2040fe3b94fcd41d0a72c84e93b115" x="1640.083984"/>
<use xlink:href="#c_7a2040fe3b94fcd41d0a72c84e93b115" x="1703.707031"/>
<use xlink:href="#c_e96974be642f6eac0427d72f9cec6c19" x="1767.330078"/>
</g>
</g>
<g id="line2d59">
<path style="fill: none; stroke: #bf00bf; stroke-width: 2.000000; stroke-linejoin: round; stroke-linecap: square;  opacity: 1.000000"  d="M201.846250 289.976250L222.006250 289.976250"/>
</g>
<g id="line2d60">
</g>
<g id="text27">
<g style="fill: #000000; opacity: 1.000000" transform="translate(237.846250,295.016250)scale(0.144000)">
<use xlink:href="#c_9e4b30cbdf32072672ded72e9074c4c9"/>
<use xlink:href="#c_5d9b0d099c491f27a9f40b391fa98eef" x="61.083984"/>
<use xlink:href="#c_7b26b13f539f13a4c64eef23b6952d29" x="118.603516"/>
<use xlink:href="#c_5099edb83619131346ae654950954dea" x="154.687500"/>
<use xlink:href="#c_6a63bda47b2f3da1cec6aadd80692cfe" x="182.470703"/>
<use xlink:href="#c_fe791a90f5471e2ab20a5ed41a7fa451" x="210.253906"/>
<use xlink:href="#c_0bce5afba2dc6b9024b26277c38ad8e8" x="273.632812"/>
<use xlink:href="#c_01d93a582460e35a7945ca50d148ffeb" x="335.156250"/>
<use xlink:href="#c_6ec8d5749226675394676a5d2a3b468b" x="396.435547"/>
<use xlink:href="#c_b672e4bee30772019085dff1098f516d" x="437.548828"/>
<use xlink:href="#c_ae70b0af174184799fa4976b9c5da571" x="501.025391"/>
<use xlink:href="#c_a469f8ee191679fe73f3b765bd271597" x="569.433594"/>
<use xlink:href="#c_83c92fcf7184248154f741f54a0382f5" x="639.257812"/>
<use xlink:href="#c_d41d8cd98f00b204e9800998ecf8427e" x="671.044922"/>
<use xlink:href="#c_a469f8ee191679fe73f3b765bd271597" x="702.832031"/>
<use xlink:href="#c_8c0379a31aa3b07b28207e25658c6113" x="772.656250"/>
<use xlink:href="#c_ed3f3ed3ebfbd18bcb9c012009a68ad1" x="856.445312"/>
<use xlink:href="#c_2980d33c6bfe3d2427dc2327ab0525d7" x="920.068359"/>
<use xlink:href="#c_42baa63129a918535c52adb20d687ea7" x="1003.857422"/>
<use xlink:href="#c_7a2040fe3b94fcd41d0a72c84e93b115" x="1067.480469"/>
<use xlink:href="#c_d41d8cd98f00b204e9800998ecf8427e" x="1131.103516"/>
<use xlink:href="#c_7efa9804c2b4c09a4b614b91fdebee3d" x="1162.890625"/>
<use xlink:href="#c_01d93a582460e35a7945ca50d148ffeb" x="1201.904297"/>
<use xlink:href="#c_6ec8d5749226675394676a5d2a3b468b" x="1263.183594"/>
<use xlink:href="#c_0bce5afba2dc6b9024b26277c38ad8e8" x="1302.046875"/>
<use xlink:href="#c_01d93a582460e35a7945ca50d148ffeb" x="1363.570312"/>
<use xlink:href="#c_d41d8cd98f00b204e9800998ecf8427e" x="1424.849609"/>
<use xlink:href="#c_8c0379a31aa3b07b28207e25658c6113" x="1456.636719"/>
<use xlink:href="#c_d41d8cd98f00b204e9800998ecf8427e" x="1540.425781"/>
<use xlink:href="#c_7a2040fe3b94fcd41d0a72c84e93b115" x="1572.212891"/>
<use xlink:href="#c_ed3e21196fb739f392806f09ca0594ef" x="1635.835938"/>
<use xlink:href="#c_3dcfa38a02242cb63ec6726c6e70be7a" x="1667.623047"/>
<use xlink:href="#c_7a2040fe3b94fcd41d0a72c84e93b115" x="1731.246094"/>
<use xlink:href="#c_e96974be642f6eac0427d72f9cec6c19" x="1794.869141"/>
</g>
</g>
</g>
</g>
</g>
</svg>
