<?xml version="1.0" standalone="no"?>
<!DOCTYPE svg PUBLIC "-//W3C//DTD SVG 1.1//EN"
  "http://www.w3.org/Graphics/SVG/1.1/DTD/svg11.dtd">
<!-- Created with matplotlib (http://matplotlib.sourceforge.net/) -->
<svg width="576pt" height="432pt" viewBox="0 0 576 432"
   xmlns="http://www.w3.org/2000/svg"
   xmlns:xlink="http://www.w3.org/1999/xlink"
   version="1.1"
   id="svg1">
<filter id="colorAdd"><feComposite in="SourceGraphic" in2="BackgroundImage" operator="arithmetic" k2="1" k3="1"/></filter>
<g id="figure1">
<g id="patch1">
<path style="fill: #ffffff; stroke: #ffffff; stroke-width: 1.000000; stroke-linejoin: round; stroke-linecap: square;  opacity: 1.000000"  d="M0.000000 432.000000L576.000000 432.000000L576.000000 0.000000
L0.000000 0.000000z"/>
</g>
<g id="axes1">
<g id="patch2">
<path style="fill: #ffffff; opacity: 1.000000"  d="M72.000000 388.800000L518.400000 388.800000L518.400000 43.200000
L72.000000 43.200000z"/>
</g>
<g id="line2d1">
<defs>
  <clipPath id="p50431ccdcb28178602d99d9270004dde">
<rect x="72.000000" y="43.200000" width="446.400000" height="345.600000"/>
  </clipPath>
</defs><path style="fill: none; stroke: #0000ff; stroke-width: 1.000000; stroke-linejoin: round; stroke-linecap: square;  opacity: 1.000000" clip-path="url(#p50431ccdcb28178602d99d9270004dde)" d="M88.010127 43.200000L108.838835 43.200000L106.840976 63.529412
L151.360000 63.529412L147.235955 83.858824L155.700000 83.858824
L151.108861 104.188235L163.905882 104.188235L158.614925 124.517647
L153.163636 144.847059L157.028571 144.847059L151.200000 165.176471
L156.662069 165.176471L150.315789 185.505882L165.000000 185.505882
L157.480851 205.835294L149.634783 226.164706L151.360000 226.164706
L143.018182 246.494118L144.669767 246.494118L135.771429 266.823529
L142.484211 266.823529L132.324324 287.152941L134.000000 287.152941
L123.017143 307.482353L153.163636 307.482353L135.771429 327.811765
L150.776471 327.811765L127.800000 348.141176L161.280000 348.141176
L121.600000 368.470588L220.800000 368.470588L72.000000 388.800000
L72.000000 388.800000L518.400000 388.800000L518.400000 388.800000"/>
</g>
<g id="line2d2">
<path style="fill: none; stroke: #008000; stroke-width: 1.000000; stroke-linejoin: round; stroke-linecap: square;  opacity: 1.000000" clip-path="url(#p50431ccdcb28178602d99d9270004dde)" d="M88.010127 43.200000L103.358678 43.200000L101.636515 63.529412
L162.410127 63.529412L157.846154 83.858824L160.105263 83.858824
L155.328000 104.188235L172.800000 104.188235L167.134426 124.517647
L183.600000 124.517647L177.035294 144.847059L179.136000 144.847059
L172.212245 165.176471L241.324138 165.176471L231.428571 185.505882
L243.692308 185.505882L232.704000 205.835294L220.800000 226.164706
L207.860870 246.494118L245.600000 246.494118L229.552941 266.823529
L250.560000 266.823529L231.428571 287.152941L295.200000 287.152941
L270.400000 307.482353L239.400000 327.811765L263.314286 327.811765
L220.800000 348.141176L295.200000 348.141176L220.800000 368.470588
L295.200000 368.470588L72.000000 388.800000L518.400000 388.800000
L518.400000 388.800000"/>
</g>
<g id="line2d3">
<path style="fill: none; stroke: #ff0000; stroke-width: 1.000000; stroke-linejoin: round; stroke-linecap: square;  opacity: 1.000000" clip-path="url(#p50431ccdcb28178602d99d9270004dde)" d="M88.010127 43.200000L149.436735 43.200000L145.632990 63.529412
L159.102439 63.529412L154.666667 83.858824L166.309859 83.858824
L161.280000 104.188235L163.905882 104.188235L158.614925 124.517647
L203.890909 124.517647L196.576744 144.847059L188.914286 165.176471
L201.221053 165.176471L192.648649 185.505882L196.000000 185.505882
L186.788571 205.835294L215.485714 205.835294L204.266667 226.164706
L192.184615 246.494118L207.860870 246.494118L193.745455 266.823529
L178.285714 287.152941L203.294118 287.152941L183.600000 307.482353
L199.542857 307.482353L175.015385 327.811765L205.920000 327.811765
L171.200000 348.141176L369.600000 348.141176L295.200000 368.470588
L72.000000 388.800000L518.400000 388.800000L518.400000 388.800000"/>
</g>
<g id="line2d4">
<path style="fill: none; stroke: #00bfbf; stroke-width: 1.000000; stroke-linejoin: round; stroke-linecap: square;  opacity: 1.000000" clip-path="url(#p50431ccdcb28178602d99d9270004dde)" d="M88.010127 43.200000L93.932948 43.200000L92.702609 63.529412
L92.762791 63.529412L160.177778 63.529412L155.700000 83.858824
L157.846154 83.858824L153.163636 104.188235L156.454054 104.188235
L151.495890 124.517647L167.134426 124.517647L161.280000 144.847059
L164.358621 144.847059L158.147368 165.176471L172.212245 165.176471
L165.000000 185.505882L169.043478 185.505882L161.280000 205.835294
L169.990244 205.835294L161.280000 226.164706L163.569231 226.164706
L154.231579 246.494118L176.160000 246.494118L164.358621 266.823529
L183.600000 266.823529L169.043478 287.152941L320.000000 287.152941
L295.200000 307.482353L263.314286 327.811765L220.800000 348.141176
L369.600000 348.141176L295.200000 368.470588L72.000000 388.800000
L518.400000 388.800000L518.400000 388.800000"/>
</g>
<g id="line2d5">
<path style="fill: none; stroke: #bf00bf; stroke-width: 1.000000; stroke-linejoin: round; stroke-linecap: square;  opacity: 1.000000" clip-path="url(#p50431ccdcb28178602d99d9270004dde)" d="M88.010127 43.200000L91.408696 43.200000L90.313846 63.529412
L90.408247 63.529412L90.648564 63.529412L89.528796 83.858824
L89.621053 83.858824L112.095808 83.858824L109.648193 104.188235
L133.877228 104.188235L130.032000 124.517647L138.703448 124.517647
L134.288372 144.847059L183.600000 144.847059L176.476596 165.176471
L181.120000 165.176471L173.454545 185.505882L175.813953 185.505882
L167.657143 205.835294L169.990244 205.835294L161.280000 226.164706
L165.978947 226.164706L156.454054 246.494118L187.733333 246.494118
L175.015385 266.823529L179.136000 266.823529L165.000000 287.152941
L196.000000 287.152941L177.035294 307.482353L209.353846 307.482353
L183.600000 327.811765L153.163636 348.141176L116.640000 368.470588
L72.000000 388.800000L72.000000 388.800000L518.400000 388.800000
L518.400000 388.800000"/>
</g>
<g id="line2d6">
<path style="fill: none; stroke: #bfbf00; stroke-width: 2.000000; stroke-linejoin: round; stroke-linecap: square;  opacity: 1.000000" clip-path="url(#p50431ccdcb28178602d99d9270004dde)" d="M72.000000 43.200000L76.509091 43.200000L81.018182 43.200000
L85.527273 43.200000L90.036364 43.200000L94.545455 55.397647
L99.054545 55.397647L103.563636 59.463529L108.072727 59.463529
L112.581818 67.595294L117.090909 67.595294L121.600000 67.595294
L126.109091 67.595294L130.618182 67.595294L135.127273 71.661176
L139.636364 75.727059L144.145455 75.727059L148.654545 79.792941
L153.163636 87.924706L157.672727 161.110588L162.181818 169.242353
L166.690909 201.769412L171.200000 209.901176L175.709091 209.901176
L180.218182 238.362353L184.727273 254.625882L189.236364 254.625882
L193.745455 254.625882L198.254545 270.889412L202.763636 270.889412
L207.272727 270.889412L211.781818 287.152941L216.290909 315.614118
L220.800000 315.614118L225.309091 315.614118L229.818182 315.614118
L234.327273 331.877647L238.836364 331.877647L243.345455 340.009412
L247.854545 364.404706L252.363636 364.404706L256.872727 364.404706
L261.381818 364.404706L265.890909 364.404706L270.400000 364.404706
L274.909091 364.404706L279.418182 364.404706L283.927273 364.404706
L288.436364 364.404706L292.945455 364.404706L297.454545 388.800000
L301.963636 388.800000L306.472727 388.800000L310.981818 388.800000
L315.490909 388.800000L320.000000 388.800000L324.509091 388.800000
L329.018182 388.800000L333.527273 388.800000L338.036364 388.800000
L342.545455 388.800000L347.054545 388.800000L351.563636 388.800000
L356.072727 388.800000L360.581818 388.800000L365.090909 388.800000
L369.600000 388.800000L374.109091 388.800000L378.618182 388.800000
L383.127273 388.800000L387.636364 388.800000L392.145455 388.800000
L396.654545 388.800000L401.163636 388.800000L405.672727 388.800000
L410.181818 388.800000L414.690909 388.800000L419.200000 388.800000
L423.709091 388.800000L428.218182 388.800000L432.727273 388.800000
L437.236364 388.800000L441.745455 388.800000L446.254545 388.800000
L450.763636 388.800000L455.272727 388.800000L459.781818 388.800000
L464.290909 388.800000L468.800000 388.800000L473.309091 388.800000
L477.818182 388.800000L482.327273 388.800000L486.836364 388.800000
L491.345455 388.800000L495.854545 388.800000L500.363636 388.800000
L504.872727 388.800000L509.381818 388.800000L513.890909 388.800000
L518.400000 388.800000"/>
</g>
<g id="matplotlib.axis1">
<g id="xtick1">
<g id="line2d7">
<defs><path id="m30e32995789d870ad79a2e54c91cf9c6" d="M0.000000 0.000000L0.000000 -4.000000"/></defs>
<g ><use style="fill: none; stroke: #000000; stroke-width: 0.500000; stroke-linejoin: round; stroke-linecap: butt;  opacity: 1.000000" xlink:href="#m30e32995789d870ad79a2e54c91cf9c6" x="72.000000" y="388.800000"/>
</g></g>
<g id="line2d8">
<defs><path id="m9281cae24120827b11d5ea8a7ad3e96b" d="M0.000000 0.000000L0.000000 4.000000"/></defs>
<g ><use style="fill: none; stroke: #000000; stroke-width: 0.500000; stroke-linejoin: round; stroke-linecap: butt;  opacity: 1.000000" xlink:href="#m9281cae24120827b11d5ea8a7ad3e96b" x="72.000000" y="43.200000"/>
</g></g>
<g id="text1">
<defs>
<path id="c_7a2040fe3b94fcd41d0a72c84e93b115" d="M31.781250 -66.406250q-7.609375 0.000000 -11.453125 7.500000q-3.828125 7.484375 -3.828125 22.531250q0.000000 14.984375 3.828125 22.484375q3.843750 7.500000 11.453125 7.500000q7.671875 0.000000 11.500000 -7.500000q3.843750 -7.500000 3.843750 -22.484375q0.000000 -15.046875 -3.843750 -22.531250q-3.828125 -7.500000 -11.500000 -7.500000M31.781250 -74.218750q12.265625 0.000000 18.734375 9.703125q6.468750 9.687500 6.468750 28.140625q0.000000 18.406250 -6.468750 28.109375q-6.468750 9.687500 -18.734375 9.687500q-12.250000 0.000000 -18.718750 -9.687500q-6.468750 -9.703125 -6.468750 -28.109375q0.000000 -18.453125 6.468750 -28.140625q6.468750 -9.703125 18.718750 -9.703125"/>
<path id="c_ed3e21196fb739f392806f09ca0594ef" d="M10.687500 -12.406250l10.312500 0.000000l0.000000 12.406250l-10.312500 0.000000z"/>
</defs>
<g style="fill: #000000; opacity: 1.000000" transform="translate(63.250000,401.706250)scale(0.120000)">
<use xlink:href="#c_7a2040fe3b94fcd41d0a72c84e93b115"/>
<use xlink:href="#c_ed3e21196fb739f392806f09ca0594ef" x="63.623047"/>
<use xlink:href="#c_7a2040fe3b94fcd41d0a72c84e93b115" x="95.410156"/>
</g>
</g>
</g>
<g id="xtick2">
<g id="line2d9">
<g ><use style="fill: none; stroke: #000000; stroke-width: 0.500000; stroke-linejoin: round; stroke-linecap: butt;  opacity: 1.000000" xlink:href="#m30e32995789d870ad79a2e54c91cf9c6" x="161.280000" y="388.800000"/>
</g></g>
<g id="line2d10">
<g ><use style="fill: none; stroke: #000000; stroke-width: 0.500000; stroke-linejoin: round; stroke-linecap: butt;  opacity: 1.000000" xlink:href="#m9281cae24120827b11d5ea8a7ad3e96b" x="161.280000" y="43.200000"/>
</g></g>
<g id="text2">
<defs>
<path id="c_ed3f3ed3ebfbd18bcb9c012009a68ad1" d="M19.187500 -8.296875l34.421875 0.000000l0.000000 8.296875l-46.281250 0.000000l0.000000 -8.296875q5.609375 -5.812500 15.296875 -15.593750q9.703125 -9.796875 12.187500 -12.640625q4.734375 -5.312500 6.609375 -9.000000q1.890625 -3.687500 1.890625 -7.250000q0.000000 -5.812500 -4.078125 -9.468750q-4.078125 -3.671875 -10.625000 -3.671875q-4.640625 0.000000 -9.796875 1.609375q-5.140625 1.609375 -11.000000 4.890625l0.000000 -9.968750q5.953125 -2.390625 11.125000 -3.609375q5.187500 -1.218750 9.484375 -1.218750q11.328125 0.000000 18.062500 5.671875q6.734375 5.656250 6.734375 15.125000q0.000000 4.500000 -1.687500 8.531250q-1.671875 4.015625 -6.125000 9.484375q-1.218750 1.421875 -7.765625 8.187500q-6.531250 6.765625 -18.453125 18.921875"/>
</defs>
<g style="fill: #000000; opacity: 1.000000" transform="translate(152.733125,401.706250)scale(0.120000)">
<use xlink:href="#c_7a2040fe3b94fcd41d0a72c84e93b115"/>
<use xlink:href="#c_ed3e21196fb739f392806f09ca0594ef" x="63.623047"/>
<use xlink:href="#c_ed3f3ed3ebfbd18bcb9c012009a68ad1" x="95.410156"/>
</g>
</g>
</g>
<g id="xtick3">
<g id="line2d11">
<g ><use style="fill: none; stroke: #000000; stroke-width: 0.500000; stroke-linejoin: round; stroke-linecap: butt;  opacity: 1.000000" xlink:href="#m30e32995789d870ad79a2e54c91cf9c6" x="250.560000" y="388.800000"/>
</g></g>
<g id="line2d12">
<g ><use style="fill: none; stroke: #000000; stroke-width: 0.500000; stroke-linejoin: round; stroke-linecap: butt;  opacity: 1.000000" xlink:href="#m9281cae24120827b11d5ea8a7ad3e96b" x="250.560000" y="43.200000"/>
</g></g>
<g id="text3">
<defs>
<path id="c_a0416418d96557a09b8c1332d34883ba" d="M37.796875 -64.312500l-24.906250 38.921875l24.906250 0.000000zM35.203125 -72.906250l12.406250 0.000000l0.000000 47.515625l10.406250 0.000000l0.000000 8.203125l-10.406250 0.000000l0.000000 17.187500l-9.812500 0.000000l0.000000 -17.187500l-32.906250 0.000000l0.000000 -9.515625z"/>
</defs>
<g style="fill: #000000; opacity: 1.000000" transform="translate(241.747500,401.706250)scale(0.120000)">
<use xlink:href="#c_7a2040fe3b94fcd41d0a72c84e93b115"/>
<use xlink:href="#c_ed3e21196fb739f392806f09ca0594ef" x="63.623047"/>
<use xlink:href="#c_a0416418d96557a09b8c1332d34883ba" x="95.410156"/>
</g>
</g>
</g>
<g id="xtick4">
<g id="line2d13">
<g ><use style="fill: none; stroke: #000000; stroke-width: 0.500000; stroke-linejoin: round; stroke-linecap: butt;  opacity: 1.000000" xlink:href="#m30e32995789d870ad79a2e54c91cf9c6" x="339.840000" y="388.800000"/>
</g></g>
<g id="line2d14">
<g ><use style="fill: none; stroke: #000000; stroke-width: 0.500000; stroke-linejoin: round; stroke-linecap: butt;  opacity: 1.000000" xlink:href="#m9281cae24120827b11d5ea8a7ad3e96b" x="339.840000" y="43.200000"/>
</g></g>
<g id="text4">
<defs>
<path id="c_cc8d6d580d1b10c8632f7a42cd53db8a" d="M33.015625 -40.375000q-6.640625 0.000000 -10.531250 4.546875q-3.875000 4.531250 -3.875000 12.437500q0.000000 7.859375 3.875000 12.437500q3.890625 4.562500 10.531250 4.562500q6.640625 0.000000 10.515625 -4.562500q3.875000 -4.578125 3.875000 -12.437500q0.000000 -7.906250 -3.875000 -12.437500q-3.875000 -4.546875 -10.515625 -4.546875M52.593750 -71.296875l0.000000 8.984375q-3.718750 -1.750000 -7.500000 -2.671875q-3.781250 -0.937500 -7.500000 -0.937500q-9.765625 0.000000 -14.921875 6.593750q-5.140625 6.593750 -5.875000 19.921875q2.875000 -4.250000 7.218750 -6.515625q4.359375 -2.265625 9.578125 -2.265625q10.984375 0.000000 17.359375 6.671875q6.375000 6.656250 6.375000 18.125000q0.000000 11.234375 -6.640625 18.031250q-6.640625 6.781250 -17.671875 6.781250q-12.656250 0.000000 -19.343750 -9.687500q-6.687500 -9.703125 -6.687500 -28.109375q0.000000 -17.281250 8.203125 -27.562500q8.203125 -10.281250 22.015625 -10.281250q3.718750 0.000000 7.500000 0.734375q3.781250 0.734375 7.890625 2.187500"/>
</defs>
<g style="fill: #000000; opacity: 1.000000" transform="translate(331.074375,401.706250)scale(0.120000)">
<use xlink:href="#c_7a2040fe3b94fcd41d0a72c84e93b115"/>
<use xlink:href="#c_ed3e21196fb739f392806f09ca0594ef" x="63.623047"/>
<use xlink:href="#c_cc8d6d580d1b10c8632f7a42cd53db8a" x="95.410156"/>
</g>
</g>
</g>
<g id="xtick5">
<g id="line2d15">
<g ><use style="fill: none; stroke: #000000; stroke-width: 0.500000; stroke-linejoin: round; stroke-linecap: butt;  opacity: 1.000000" xlink:href="#m30e32995789d870ad79a2e54c91cf9c6" x="429.120000" y="388.800000"/>
</g></g>
<g id="line2d16">
<g ><use style="fill: none; stroke: #000000; stroke-width: 0.500000; stroke-linejoin: round; stroke-linecap: butt;  opacity: 1.000000" xlink:href="#m9281cae24120827b11d5ea8a7ad3e96b" x="429.120000" y="43.200000"/>
</g></g>
<g id="text5">
<defs>
<path id="c_bef35738d52871942e50b9de9b122bab" d="M31.781250 -34.625000q-7.031250 0.000000 -11.062500 3.765625q-4.015625 3.765625 -4.015625 10.343750q0.000000 6.593750 4.015625 10.359375q4.031250 3.765625 11.062500 3.765625q7.031250 0.000000 11.078125 -3.781250q4.062500 -3.796875 4.062500 -10.343750q0.000000 -6.578125 -4.031250 -10.343750q-4.015625 -3.765625 -11.109375 -3.765625M21.921875 -38.812500q-6.343750 -1.562500 -9.890625 -5.906250q-3.531250 -4.359375 -3.531250 -10.609375q0.000000 -8.734375 6.218750 -13.812500q6.234375 -5.078125 17.062500 -5.078125q10.890625 0.000000 17.093750 5.078125q6.203125 5.078125 6.203125 13.812500q0.000000 6.250000 -3.546875 10.609375q-3.531250 4.343750 -9.828125 5.906250q7.125000 1.656250 11.093750 6.500000q3.984375 4.828125 3.984375 11.796875q0.000000 10.609375 -6.468750 16.281250q-6.468750 5.656250 -18.531250 5.656250q-12.046875 0.000000 -18.531250 -5.656250q-6.468750 -5.671875 -6.468750 -16.281250q0.000000 -6.968750 4.000000 -11.796875q4.015625 -4.843750 11.140625 -6.500000M18.312500 -54.390625q0.000000 5.656250 3.531250 8.828125q3.546875 3.171875 9.937500 3.171875q6.359375 0.000000 9.937500 -3.171875q3.593750 -3.171875 3.593750 -8.828125q0.000000 -5.671875 -3.593750 -8.843750q-3.578125 -3.171875 -9.937500 -3.171875q-6.390625 0.000000 -9.937500 3.171875q-3.531250 3.171875 -3.531250 8.843750"/>
</defs>
<g style="fill: #000000; opacity: 1.000000" transform="translate(420.385625,401.706250)scale(0.120000)">
<use xlink:href="#c_7a2040fe3b94fcd41d0a72c84e93b115"/>
<use xlink:href="#c_ed3e21196fb739f392806f09ca0594ef" x="63.623047"/>
<use xlink:href="#c_bef35738d52871942e50b9de9b122bab" x="95.410156"/>
</g>
</g>
</g>
<g id="xtick6">
<g id="line2d17">
<g ><use style="fill: none; stroke: #000000; stroke-width: 0.500000; stroke-linejoin: round; stroke-linecap: butt;  opacity: 1.000000" xlink:href="#m30e32995789d870ad79a2e54c91cf9c6" x="518.400000" y="388.800000"/>
</g></g>
<g id="line2d18">
<g ><use style="fill: none; stroke: #000000; stroke-width: 0.500000; stroke-linejoin: round; stroke-linecap: butt;  opacity: 1.000000" xlink:href="#m9281cae24120827b11d5ea8a7ad3e96b" x="518.400000" y="43.200000"/>
</g></g>
<g id="text6">
<defs>
<path id="c_42baa63129a918535c52adb20d687ea7" d="M12.406250 -8.296875l16.109375 0.000000l0.000000 -55.625000l-17.531250 3.515625l0.000000 -8.984375l17.437500 -3.515625l9.859375 0.000000l0.000000 64.609375l16.109375 0.000000l0.000000 8.296875l-41.984375 0.000000z"/>
</defs>
<g style="fill: #000000; opacity: 1.000000" transform="translate(509.907812,401.706250)scale(0.120000)">
<use xlink:href="#c_42baa63129a918535c52adb20d687ea7"/>
<use xlink:href="#c_ed3e21196fb739f392806f09ca0594ef" x="63.623047"/>
<use xlink:href="#c_7a2040fe3b94fcd41d0a72c84e93b115" x="95.410156"/>
</g>
</g>
</g>
<g id="text7">
<defs>
<path id="c_518d586bee075aa0153eaebfcb5ab11f" d="M19.671875 -64.796875l0.000000 27.390625l12.406250 0.000000q6.890625 0.000000 10.640625 -3.562500q3.765625 -3.562500 3.765625 -10.156250q0.000000 -6.546875 -3.765625 -10.109375q-3.750000 -3.562500 -10.640625 -3.562500zM9.812500 -72.906250l22.265625 0.000000q12.265625 0.000000 18.531250 5.546875q6.281250 5.546875 6.281250 16.234375q0.000000 10.796875 -6.281250 16.312500q-6.265625 5.515625 -18.531250 5.515625l-12.406250 0.000000l0.000000 29.296875l-9.859375 0.000000z"/>
<path id="c_6ec8d5749226675394676a5d2a3b468b" d="M41.109375 -46.296875q-1.515625 -0.875000 -3.296875 -1.281250q-1.781250 -0.421875 -3.921875 -0.421875q-7.625000 0.000000 -11.703125 4.953125q-4.078125 4.953125 -4.078125 14.234375l0.000000 28.812500l-9.031250 0.000000l0.000000 -54.687500l9.031250 0.000000l0.000000 8.500000q2.843750 -4.984375 7.375000 -7.390625q4.546875 -2.421875 11.046875 -2.421875q0.921875 0.000000 2.046875 0.125000q1.125000 0.109375 2.484375 0.359375z"/>
<path id="c_0bce5afba2dc6b9024b26277c38ad8e8" d="M56.203125 -29.593750l0.000000 4.390625l-41.312500 0.000000q0.593750 9.281250 5.593750 14.140625q5.000000 4.859375 13.937500 4.859375q5.171875 0.000000 10.031250 -1.265625q4.859375 -1.265625 9.656250 -3.812500l0.000000 8.500000q-4.843750 2.046875 -9.921875 3.125000q-5.078125 1.078125 -10.296875 1.078125q-13.093750 0.000000 -20.734375 -7.609375q-7.640625 -7.625000 -7.640625 -20.625000q0.000000 -13.421875 7.250000 -21.296875q7.250000 -7.890625 19.562500 -7.890625q11.031250 0.000000 17.453125 7.109375q6.421875 7.093750 6.421875 19.296875M47.218750 -32.234375q-0.093750 -7.359375 -4.125000 -11.750000q-4.031250 -4.406250 -10.671875 -4.406250q-7.515625 0.000000 -12.031250 4.250000q-4.515625 4.250000 -5.203125 11.968750z"/>
<path id="c_d650c37394b681142a10dfc54356d478" d="M48.781250 -52.593750l0.000000 8.406250q-3.812500 -2.109375 -7.640625 -3.156250q-3.828125 -1.046875 -7.734375 -1.046875q-8.750000 0.000000 -13.593750 5.546875q-4.828125 5.531250 -4.828125 15.546875q0.000000 10.015625 4.828125 15.562500q4.843750 5.531250 13.593750 5.531250q3.906250 0.000000 7.734375 -1.046875q3.828125 -1.046875 7.640625 -3.156250l0.000000 8.312500q-3.765625 1.750000 -7.796875 2.625000q-4.015625 0.890625 -8.562500 0.890625q-12.359375 0.000000 -19.640625 -7.765625q-7.265625 -7.765625 -7.265625 -20.953125q0.000000 -13.375000 7.343750 -21.031250q7.359375 -7.671875 20.156250 -7.671875q4.140625 0.000000 8.093750 0.859375q3.953125 0.843750 7.671875 2.546875"/>
<path id="c_6a63bda47b2f3da1cec6aadd80692cfe" d="M9.421875 -54.687500l8.984375 0.000000l0.000000 54.687500l-8.984375 0.000000zM9.421875 -75.984375l8.984375 0.000000l0.000000 11.390625l-8.984375 0.000000z"/>
<path id="c_8e0810ad13fe20a2a87a2619799b154d" d="M44.281250 -53.078125l0.000000 8.500000q-3.796875 -1.953125 -7.906250 -2.921875q-4.093750 -0.984375 -8.500000 -0.984375q-6.687500 0.000000 -10.031250 2.046875q-3.343750 2.046875 -3.343750 6.156250q0.000000 3.125000 2.390625 4.906250q2.390625 1.781250 9.625000 3.390625l3.078125 0.687500q9.562500 2.046875 13.593750 5.781250q4.031250 3.734375 4.031250 10.421875q0.000000 7.625000 -6.031250 12.078125q-6.031250 4.437500 -16.578125 4.437500q-4.390625 0.000000 -9.156250 -0.859375q-4.765625 -0.859375 -10.031250 -2.562500l0.000000 -9.281250q4.984375 2.593750 9.812500 3.890625q4.828125 1.281250 9.578125 1.281250q6.343750 0.000000 9.750000 -2.171875q3.421875 -2.171875 3.421875 -6.125000q0.000000 -3.656250 -2.468750 -5.609375q-2.453125 -1.953125 -10.812500 -3.765625l-3.125000 -0.734375q-8.343750 -1.750000 -12.062500 -5.390625q-3.703125 -3.640625 -3.703125 -9.984375q0.000000 -7.718750 5.468750 -11.906250q5.468750 -4.203125 15.531250 -4.203125q4.968750 0.000000 9.359375 0.734375q4.406250 0.718750 8.109375 2.187500"/>
<path id="c_f05dd90d41f04bb96ef1ca503cc2044b" d="M30.609375 -48.390625q-7.218750 0.000000 -11.421875 5.640625q-4.203125 5.640625 -4.203125 15.453125q0.000000 9.812500 4.171875 15.453125q4.187500 5.640625 11.453125 5.640625q7.187500 0.000000 11.375000 -5.656250q4.203125 -5.671875 4.203125 -15.437500q0.000000 -9.718750 -4.203125 -15.406250q-4.187500 -5.687500 -11.375000 -5.687500M30.609375 -56.000000q11.718750 0.000000 18.406250 7.625000q6.703125 7.609375 6.703125 21.078125q0.000000 13.421875 -6.703125 21.078125q-6.687500 7.640625 -18.406250 7.640625q-11.765625 0.000000 -18.437500 -7.640625q-6.656250 -7.656250 -6.656250 -21.078125q0.000000 -13.468750 6.656250 -21.078125q6.671875 -7.625000 18.437500 -7.625000"/>
<path id="c_fe791a90f5471e2ab20a5ed41a7fa451" d="M54.890625 -33.015625l0.000000 33.015625l-8.984375 0.000000l0.000000 -32.718750q0.000000 -7.765625 -3.031250 -11.609375q-3.031250 -3.859375 -9.078125 -3.859375q-7.281250 0.000000 -11.484375 4.640625q-4.203125 4.625000 -4.203125 12.640625l0.000000 30.906250l-9.031250 0.000000l0.000000 -54.687500l9.031250 0.000000l0.000000 8.500000q3.234375 -4.937500 7.593750 -7.375000q4.375000 -2.437500 10.093750 -2.437500q9.421875 0.000000 14.250000 5.828125q4.843750 5.828125 4.843750 17.156250"/>
</defs>
<g style="fill: #000000; opacity: 1.000000" transform="translate(269.535937,416.003125)scale(0.120000)">
<use xlink:href="#c_518d586bee075aa0153eaebfcb5ab11f"/>
<use xlink:href="#c_6ec8d5749226675394676a5d2a3b468b" x="58.552734"/>
<use xlink:href="#c_0bce5afba2dc6b9024b26277c38ad8e8" x="97.416016"/>
<use xlink:href="#c_d650c37394b681142a10dfc54356d478" x="158.939453"/>
<use xlink:href="#c_6a63bda47b2f3da1cec6aadd80692cfe" x="213.919922"/>
<use xlink:href="#c_8e0810ad13fe20a2a87a2619799b154d" x="241.703125"/>
<use xlink:href="#c_6a63bda47b2f3da1cec6aadd80692cfe" x="293.802734"/>
<use xlink:href="#c_f05dd90d41f04bb96ef1ca503cc2044b" x="321.585938"/>
<use xlink:href="#c_fe791a90f5471e2ab20a5ed41a7fa451" x="382.767578"/>
</g>
</g>
</g>
<g id="matplotlib.axis2">
<g id="ytick1">
<g id="line2d19">
<defs><path id="m3400efa6b1638b3fea9e19e898273957" d="M0.000000 0.000000L4.000000 0.000000"/></defs>
<g ><use style="fill: none; stroke: #000000; stroke-width: 0.500000; stroke-linejoin: round; stroke-linecap: butt;  opacity: 1.000000" xlink:href="#m3400efa6b1638b3fea9e19e898273957" x="72.000000" y="388.800000"/>
</g></g>
<g id="line2d20">
<defs><path id="m20b58b2501143cb5e0a5e8f1ef6f1643" d="M0.000000 0.000000L-4.000000 0.000000"/></defs>
<g ><use style="fill: none; stroke: #000000; stroke-width: 0.500000; stroke-linejoin: round; stroke-linecap: butt;  opacity: 1.000000" xlink:href="#m20b58b2501143cb5e0a5e8f1ef6f1643" x="518.400000" y="388.800000"/>
</g></g>
<g id="text8">
<g style="fill: #000000; opacity: 1.000000" transform="translate(50.500000,393.167188)scale(0.120000)">
<use xlink:href="#c_7a2040fe3b94fcd41d0a72c84e93b115"/>
<use xlink:href="#c_ed3e21196fb739f392806f09ca0594ef" x="63.623047"/>
<use xlink:href="#c_7a2040fe3b94fcd41d0a72c84e93b115" x="95.410156"/>
</g>
</g>
</g>
<g id="ytick2">
<g id="line2d21">
<g ><use style="fill: none; stroke: #000000; stroke-width: 0.500000; stroke-linejoin: round; stroke-linecap: butt;  opacity: 1.000000" xlink:href="#m3400efa6b1638b3fea9e19e898273957" x="72.000000" y="319.680000"/>
</g></g>
<g id="line2d22">
<g ><use style="fill: none; stroke: #000000; stroke-width: 0.500000; stroke-linejoin: round; stroke-linecap: butt;  opacity: 1.000000" xlink:href="#m20b58b2501143cb5e0a5e8f1ef6f1643" x="518.400000" y="319.680000"/>
</g></g>
<g id="text9">
<g style="fill: #000000; opacity: 1.000000" transform="translate(50.906250,324.047188)scale(0.120000)">
<use xlink:href="#c_7a2040fe3b94fcd41d0a72c84e93b115"/>
<use xlink:href="#c_ed3e21196fb739f392806f09ca0594ef" x="63.623047"/>
<use xlink:href="#c_ed3f3ed3ebfbd18bcb9c012009a68ad1" x="95.410156"/>
</g>
</g>
</g>
<g id="ytick3">
<g id="line2d23">
<g ><use style="fill: none; stroke: #000000; stroke-width: 0.500000; stroke-linejoin: round; stroke-linecap: butt;  opacity: 1.000000" xlink:href="#m3400efa6b1638b3fea9e19e898273957" x="72.000000" y="250.560000"/>
</g></g>
<g id="line2d24">
<g ><use style="fill: none; stroke: #000000; stroke-width: 0.500000; stroke-linejoin: round; stroke-linecap: butt;  opacity: 1.000000" xlink:href="#m20b58b2501143cb5e0a5e8f1ef6f1643" x="518.400000" y="250.560000"/>
</g></g>
<g id="text10">
<g style="fill: #000000; opacity: 1.000000" transform="translate(50.375000,254.927188)scale(0.120000)">
<use xlink:href="#c_7a2040fe3b94fcd41d0a72c84e93b115"/>
<use xlink:href="#c_ed3e21196fb739f392806f09ca0594ef" x="63.623047"/>
<use xlink:href="#c_a0416418d96557a09b8c1332d34883ba" x="95.410156"/>
</g>
</g>
</g>
<g id="ytick4">
<g id="line2d25">
<g ><use style="fill: none; stroke: #000000; stroke-width: 0.500000; stroke-linejoin: round; stroke-linecap: butt;  opacity: 1.000000" xlink:href="#m3400efa6b1638b3fea9e19e898273957" x="72.000000" y="181.440000"/>
</g></g>
<g id="line2d26">
<g ><use style="fill: none; stroke: #000000; stroke-width: 0.500000; stroke-linejoin: round; stroke-linecap: butt;  opacity: 1.000000" xlink:href="#m20b58b2501143cb5e0a5e8f1ef6f1643" x="518.400000" y="181.440000"/>
</g></g>
<g id="text11">
<g style="fill: #000000; opacity: 1.000000" transform="translate(50.468750,185.807187)scale(0.120000)">
<use xlink:href="#c_7a2040fe3b94fcd41d0a72c84e93b115"/>
<use xlink:href="#c_ed3e21196fb739f392806f09ca0594ef" x="63.623047"/>
<use xlink:href="#c_cc8d6d580d1b10c8632f7a42cd53db8a" x="95.410156"/>
</g>
</g>
</g>
<g id="ytick5">
<g id="line2d27">
<g ><use style="fill: none; stroke: #000000; stroke-width: 0.500000; stroke-linejoin: round; stroke-linecap: butt;  opacity: 1.000000" xlink:href="#m3400efa6b1638b3fea9e19e898273957" x="72.000000" y="112.320000"/>
</g></g>
<g id="line2d28">
<g ><use style="fill: none; stroke: #000000; stroke-width: 0.500000; stroke-linejoin: round; stroke-linecap: butt;  opacity: 1.000000" xlink:href="#m20b58b2501143cb5e0a5e8f1ef6f1643" x="518.400000" y="112.320000"/>
</g></g>
<g id="text12">
<g style="fill: #000000; opacity: 1.000000" transform="translate(50.531250,116.687187)scale(0.120000)">
<use xlink:href="#c_7a2040fe3b94fcd41d0a72c84e93b115"/>
<use xlink:href="#c_ed3e21196fb739f392806f09ca0594ef" x="63.623047"/>
<use xlink:href="#c_bef35738d52871942e50b9de9b122bab" x="95.410156"/>
</g>
</g>
</g>
<g id="ytick6">
<g id="line2d29">
<g ><use style="fill: none; stroke: #000000; stroke-width: 0.500000; stroke-linejoin: round; stroke-linecap: butt;  opacity: 1.000000" xlink:href="#m3400efa6b1638b3fea9e19e898273957" x="72.000000" y="43.200000"/>
</g></g>
<g id="line2d30">
<g ><use style="fill: none; stroke: #000000; stroke-width: 0.500000; stroke-linejoin: round; stroke-linecap: butt;  opacity: 1.000000" xlink:href="#m20b58b2501143cb5e0a5e8f1ef6f1643" x="518.400000" y="43.200000"/>
</g></g>
<g id="text13">
<g style="fill: #000000; opacity: 1.000000" transform="translate(51.015625,47.567187)scale(0.120000)">
<use xlink:href="#c_42baa63129a918535c52adb20d687ea7"/>
<use xlink:href="#c_ed3e21196fb739f392806f09ca0594ef" x="63.623047"/>
<use xlink:href="#c_7a2040fe3b94fcd41d0a72c84e93b115" x="95.410156"/>
</g>
</g>
</g>
<g id="text14">
<defs>
<path id="c_4c6532c564269b2c70b230c2e45c01e4" d="M44.390625 -34.187500q3.171875 1.078125 6.171875 4.593750q3.000000 3.515625 6.031250 9.671875l10.015625 19.921875l-10.609375 0.000000l-9.312500 -18.703125q-3.625000 -7.328125 -7.015625 -9.718750q-3.390625 -2.390625 -9.250000 -2.390625l-10.750000 0.000000l0.000000 30.812500l-9.859375 0.000000l0.000000 -72.906250l22.265625 0.000000q12.500000 0.000000 18.656250 5.234375q6.156250 5.218750 6.156250 15.765625q0.000000 6.890625 -3.203125 11.437500q-3.203125 4.531250 -9.296875 6.281250M19.671875 -64.796875l0.000000 25.875000l12.406250 0.000000q7.125000 0.000000 10.765625 -3.296875q3.640625 -3.296875 3.640625 -9.687500q0.000000 -6.390625 -3.640625 -9.640625q-3.640625 -3.250000 -10.765625 -3.250000z"/>
<path id="c_01d93a582460e35a7945ca50d148ffeb" d="M34.281250 -27.484375q-10.890625 0.000000 -15.093750 2.484375q-4.203125 2.484375 -4.203125 8.500000q0.000000 4.781250 3.156250 7.593750q3.156250 2.796875 8.562500 2.796875q7.484375 0.000000 12.000000 -5.296875q4.515625 -5.296875 4.515625 -14.078125l0.000000 -2.000000zM52.203125 -31.203125l0.000000 31.203125l-8.984375 0.000000l0.000000 -8.296875q-3.078125 4.968750 -7.671875 7.343750q-4.593750 2.375000 -11.234375 2.375000q-8.390625 0.000000 -13.359375 -4.718750q-4.953125 -4.718750 -4.953125 -12.625000q0.000000 -9.218750 6.171875 -13.906250q6.187500 -4.687500 18.437500 -4.687500l12.609375 0.000000l0.000000 -0.890625q0.000000 -6.203125 -4.078125 -9.593750q-4.078125 -3.390625 -11.453125 -3.390625q-4.687500 0.000000 -9.140625 1.125000q-4.437500 1.125000 -8.531250 3.375000l0.000000 -8.312500q4.921875 -1.906250 9.562500 -2.843750q4.640625 -0.953125 9.031250 -0.953125q11.875000 0.000000 17.734375 6.156250q5.859375 6.140625 5.859375 18.640625"/>
<path id="c_5099edb83619131346ae654950954dea" d="M9.421875 -75.984375l8.984375 0.000000l0.000000 75.984375l-8.984375 0.000000z"/>
</defs>
<g style="fill: #000000; opacity: 1.000000" transform="translate(45.375000,232.601562)rotate(-90.0)scale(0.120000)">
<use xlink:href="#c_4c6532c564269b2c70b230c2e45c01e4"/>
<use xlink:href="#c_0bce5afba2dc6b9024b26277c38ad8e8" x="64.982422"/>
<use xlink:href="#c_d650c37394b681142a10dfc54356d478" x="126.505859"/>
<use xlink:href="#c_01d93a582460e35a7945ca50d148ffeb" x="181.486328"/>
<use xlink:href="#c_5099edb83619131346ae654950954dea" x="242.765625"/>
<use xlink:href="#c_5099edb83619131346ae654950954dea" x="270.548828"/>
</g>
</g>
</g>
<g id="patch3">
<path style="fill: none; stroke: #000000; stroke-width: 1.000000; stroke-linejoin: round; stroke-linecap: square;  opacity: 1.000000"  d="M72.000000 43.200000L518.400000 43.200000"/>
</g>
<g id="patch4">
<path style="fill: none; stroke: #000000; stroke-width: 1.000000; stroke-linejoin: round; stroke-linecap: square;  opacity: 1.000000"  d="M518.400000 388.800000L518.400000 43.200000"/>
</g>
<g id="patch5">
<path style="fill: none; stroke: #000000; stroke-width: 1.000000; stroke-linejoin: round; stroke-linecap: square;  opacity: 1.000000"  d="M72.000000 388.800000L518.400000 388.800000"/>
</g>
<g id="patch6">
<path style="fill: none; stroke: #000000; stroke-width: 1.000000; stroke-linejoin: round; stroke-linecap: square;  opacity: 1.000000"  d="M72.000000 388.800000L72.000000 43.200000"/>
</g>
<g id="text15">
<defs>
<path id="c_9e4b30cbdf32072672ded72e9074c4c9" d="M-0.296875 -72.906250l61.671875 0.000000l0.000000 8.312500l-25.875000 0.000000l0.000000 64.593750l-9.906250 0.000000l0.000000 -64.593750l-25.890625 0.000000z"/>
<path id="c_5d9b0d099c491f27a9f40b391fa98eef" d="M9.812500 -72.906250l41.890625 0.000000l0.000000 8.312500l-32.031250 0.000000l0.000000 21.484375l28.906250 0.000000l0.000000 8.296875l-28.906250 0.000000l0.000000 34.812500l-9.859375 0.000000z"/>
<path id="c_7b26b13f539f13a4c64eef23b6952d29" d="M4.890625 -31.390625l26.312500 0.000000l0.000000 8.000000l-26.312500 0.000000z"/>
<path id="c_b672e4bee30772019085dff1098f516d" d="M53.515625 -70.515625l0.000000 9.625000q-5.609375 -2.687500 -10.593750 -4.000000q-4.984375 -1.328125 -9.625000 -1.328125q-8.046875 0.000000 -12.421875 3.125000q-4.375000 3.125000 -4.375000 8.890625q0.000000 4.843750 2.906250 7.312500q2.906250 2.453125 11.015625 3.968750l5.953125 1.218750q11.031250 2.109375 16.281250 7.406250q5.250000 5.296875 5.250000 14.171875q0.000000 10.609375 -7.109375 16.078125q-7.093750 5.468750 -20.812500 5.468750q-5.171875 0.000000 -11.015625 -1.171875q-5.828125 -1.171875 -12.078125 -3.468750l0.000000 -10.156250q6.000000 3.359375 11.765625 5.078125q5.765625 1.703125 11.328125 1.703125q8.437500 0.000000 13.031250 -3.312500q4.593750 -3.328125 4.593750 -9.484375q0.000000 -5.359375 -3.296875 -8.390625q-3.296875 -3.031250 -10.812500 -4.546875l-6.015625 -1.171875q-11.031250 -2.187500 -15.968750 -6.875000q-4.921875 -4.687500 -4.921875 -13.046875q0.000000 -9.671875 6.812500 -15.234375q6.812500 -5.562500 18.765625 -5.562500q5.140625 0.000000 10.453125 0.937500q5.328125 0.921875 10.890625 2.765625"/>
<path id="c_ae70b0af174184799fa4976b9c5da571" d="M28.609375 -0.000000l-27.828125 -72.906250l10.296875 0.000000l23.109375 61.375000l23.140625 -61.375000l10.250000 0.000000l-27.781250 72.906250z"/>
<path id="c_a469f8ee191679fe73f3b765bd271597" d="M64.406250 -67.281250l0.000000 10.390625q-4.984375 -4.640625 -10.625000 -6.921875q-5.640625 -2.296875 -11.984375 -2.296875q-12.500000 0.000000 -19.140625 7.640625q-6.640625 7.640625 -6.640625 22.093750q0.000000 14.406250 6.640625 22.046875q6.640625 7.640625 19.140625 7.640625q6.343750 0.000000 11.984375 -2.296875q5.640625 -2.296875 10.625000 -6.937500l0.000000 10.312500q-5.171875 3.515625 -10.968750 5.281250q-5.781250 1.750000 -12.218750 1.750000q-16.562500 0.000000 -26.093750 -10.125000q-9.515625 -10.140625 -9.515625 -27.671875q0.000000 -17.578125 9.515625 -27.703125q9.531250 -10.140625 26.093750 -10.140625q6.531250 0.000000 12.312500 1.734375q5.796875 1.734375 10.875000 5.203125"/>
<path id="c_83c92fcf7184248154f741f54a0382f5" d="M11.718750 -12.406250l10.296875 0.000000l0.000000 8.406250l-8.000000 15.625000l-6.296875 0.000000l4.000000 -15.625000z"/>
<path id="c_d41d8cd98f00b204e9800998ecf8427e" d=""/>
<path id="c_8c0379a31aa3b07b28207e25658c6113" d="M10.593750 -45.406250l62.593750 0.000000l0.000000 8.203125l-62.593750 0.000000zM10.593750 -25.484375l62.593750 0.000000l0.000000 8.296875l-62.593750 0.000000z"/>
<path id="c_2980d33c6bfe3d2427dc2327ab0525d7" d="M46.687500 -72.906250l26.500000 27.203125l-9.812500 0.000000l-21.484375 -19.281250l-21.484375 19.281250l-9.812500 0.000000l26.515625 -27.203125z"/>
<path id="c_f15a64fcd463ef4629c48bab42cde24c" d="M18.109375 -8.203125l0.000000 29.000000l-9.031250 0.000000l0.000000 -75.484375l9.031250 0.000000l0.000000 8.296875q2.843750 -4.875000 7.156250 -7.234375q4.328125 -2.375000 10.328125 -2.375000q9.968750 0.000000 16.187500 7.906250q6.234375 7.906250 6.234375 20.796875q0.000000 12.890625 -6.234375 20.812500q-6.218750 7.906250 -16.187500 7.906250q-6.000000 0.000000 -10.328125 -2.375000q-4.312500 -2.375000 -7.156250 -7.250000M48.687500 -27.296875q0.000000 -9.906250 -4.078125 -15.546875q-4.078125 -5.640625 -11.203125 -5.640625q-7.140625 0.000000 -11.218750 5.640625q-4.078125 5.640625 -4.078125 15.546875q0.000000 9.906250 4.078125 15.546875q4.078125 5.640625 11.218750 5.640625q7.125000 0.000000 11.203125 -5.640625q4.078125 -5.640625 4.078125 -15.546875"/>
<path id="c_c48ceabac27bf136feba2f4bf2716ab6" d="M2.984375 -54.687500l9.515625 0.000000l17.093750 45.890625l17.093750 -45.890625l9.515625 0.000000l-20.515625 54.687500l-12.203125 0.000000z"/>
<path id="c_73b12fe3945075d29fe0cc9a468fa31e" d="M37.109375 -75.984375l0.000000 7.484375l-8.593750 0.000000q-4.828125 0.000000 -6.718750 1.953125q-1.875000 1.953125 -1.875000 7.031250l0.000000 4.828125l14.796875 0.000000l0.000000 6.984375l-14.796875 0.000000l0.000000 47.703125l-9.031250 0.000000l0.000000 -47.703125l-8.593750 0.000000l0.000000 -6.984375l8.593750 0.000000l0.000000 -3.812500q0.000000 -9.125000 4.250000 -13.296875q4.250000 -4.187500 13.468750 -4.187500z"/>
<path id="c_d821beae607506e87470f334d9ff47af" d="M45.406250 -46.390625l0.000000 -29.593750l8.984375 0.000000l0.000000 75.984375l-8.984375 0.000000l0.000000 -8.203125q-2.828125 4.875000 -7.156250 7.250000q-4.312500 2.375000 -10.375000 2.375000q-9.906250 0.000000 -16.140625 -7.906250q-6.218750 -7.921875 -6.218750 -20.812500q0.000000 -12.890625 6.218750 -20.796875q6.234375 -7.906250 16.140625 -7.906250q6.062500 0.000000 10.375000 2.375000q4.328125 2.359375 7.156250 7.234375M14.796875 -27.296875q0.000000 9.906250 4.078125 15.546875q4.078125 5.640625 11.203125 5.640625q7.125000 0.000000 11.218750 -5.640625q4.109375 -5.640625 4.109375 -15.546875q0.000000 -9.906250 -4.109375 -15.546875q-4.093750 -5.640625 -11.218750 -5.640625q-7.125000 0.000000 -11.203125 5.640625q-4.078125 5.640625 -4.078125 15.546875"/>
</defs>
<g style="fill: #000000; opacity: 1.000000" transform="translate(119.692187,38.200000)scale(0.144000)">
<use xlink:href="#c_9e4b30cbdf32072672ded72e9074c4c9"/>
<use xlink:href="#c_5d9b0d099c491f27a9f40b391fa98eef" x="61.083984"/>
<use xlink:href="#c_7b26b13f539f13a4c64eef23b6952d29" x="118.603516"/>
<use xlink:href="#c_5099edb83619131346ae654950954dea" x="154.687500"/>
<use xlink:href="#c_6a63bda47b2f3da1cec6aadd80692cfe" x="182.470703"/>
<use xlink:href="#c_fe791a90f5471e2ab20a5ed41a7fa451" x="210.253906"/>
<use xlink:href="#c_0bce5afba2dc6b9024b26277c38ad8e8" x="273.632812"/>
<use xlink:href="#c_01d93a582460e35a7945ca50d148ffeb" x="335.156250"/>
<use xlink:href="#c_6ec8d5749226675394676a5d2a3b468b" x="396.435547"/>
<use xlink:href="#c_b672e4bee30772019085dff1098f516d" x="437.548828"/>
<use xlink:href="#c_ae70b0af174184799fa4976b9c5da571" x="501.025391"/>
<use xlink:href="#c_a469f8ee191679fe73f3b765bd271597" x="569.433594"/>
<use xlink:href="#c_83c92fcf7184248154f741f54a0382f5" x="639.257812"/>
<use xlink:href="#c_d41d8cd98f00b204e9800998ecf8427e" x="671.044922"/>
<use xlink:href="#c_a469f8ee191679fe73f3b765bd271597" x="702.832031"/>
<use xlink:href="#c_8c0379a31aa3b07b28207e25658c6113" x="772.656250"/>
<use xlink:href="#c_ed3f3ed3ebfbd18bcb9c012009a68ad1" x="856.445312"/>
<use xlink:href="#c_2980d33c6bfe3d2427dc2327ab0525d7" x="920.068359"/>
<use xlink:href="#c_7b26b13f539f13a4c64eef23b6952d29" x="1003.857422"/>
<use xlink:href="#c_ed3f3ed3ebfbd18bcb9c012009a68ad1" x="1039.941406"/>
<use xlink:href="#c_d41d8cd98f00b204e9800998ecf8427e" x="1103.564453"/>
<use xlink:href="#c_f15a64fcd463ef4629c48bab42cde24c" x="1135.351563"/>
<use xlink:href="#c_6ec8d5749226675394676a5d2a3b468b" x="1198.828125"/>
<use xlink:href="#c_0bce5afba2dc6b9024b26277c38ad8e8" x="1237.691406"/>
<use xlink:href="#c_d650c37394b681142a10dfc54356d478" x="1299.214844"/>
<use xlink:href="#c_6a63bda47b2f3da1cec6aadd80692cfe" x="1354.195313"/>
<use xlink:href="#c_8e0810ad13fe20a2a87a2619799b154d" x="1381.978516"/>
<use xlink:href="#c_6a63bda47b2f3da1cec6aadd80692cfe" x="1434.078125"/>
<use xlink:href="#c_f05dd90d41f04bb96ef1ca503cc2044b" x="1461.861328"/>
<use xlink:href="#c_fe791a90f5471e2ab20a5ed41a7fa451" x="1523.042969"/>
<use xlink:href="#c_d41d8cd98f00b204e9800998ecf8427e" x="1586.421875"/>
<use xlink:href="#c_c48ceabac27bf136feba2f4bf2716ab6" x="1618.208984"/>
<use xlink:href="#c_8e0810ad13fe20a2a87a2619799b154d" x="1677.388672"/>
<use xlink:href="#c_d41d8cd98f00b204e9800998ecf8427e" x="1729.488281"/>
<use xlink:href="#c_6ec8d5749226675394676a5d2a3b468b" x="1761.275391"/>
<use xlink:href="#c_0bce5afba2dc6b9024b26277c38ad8e8" x="1800.138672"/>
<use xlink:href="#c_d650c37394b681142a10dfc54356d478" x="1861.662109"/>
<use xlink:href="#c_01d93a582460e35a7945ca50d148ffeb" x="1916.642578"/>
<use xlink:href="#c_5099edb83619131346ae654950954dea" x="1977.921875"/>
<use xlink:href="#c_5099edb83619131346ae654950954dea" x="2005.705078"/>
<use xlink:href="#c_d41d8cd98f00b204e9800998ecf8427e" x="2033.488281"/>
<use xlink:href="#c_f15a64fcd463ef4629c48bab42cde24c" x="2065.275391"/>
<use xlink:href="#c_0bce5afba2dc6b9024b26277c38ad8e8" x="2128.751953"/>
<use xlink:href="#c_6ec8d5749226675394676a5d2a3b468b" x="2190.275391"/>
<use xlink:href="#c_d41d8cd98f00b204e9800998ecf8427e" x="2231.388672"/>
<use xlink:href="#c_73b12fe3945075d29fe0cc9a468fa31e" x="2263.175781"/>
<use xlink:href="#c_f05dd90d41f04bb96ef1ca503cc2044b" x="2298.380859"/>
<use xlink:href="#c_5099edb83619131346ae654950954dea" x="2359.562500"/>
<use xlink:href="#c_d821beae607506e87470f334d9ff47af" x="2387.345703"/>
</g>
</g>
<g id="legend1">
<g id="patch7">
<path style="fill: #ffffff; stroke: #000000; stroke-width: 1.000000; stroke-linejoin: round; stroke-linecap: square;  opacity: 1.000000"  d="M200.906875 178.138750L511.200000 178.138750L511.200000 50.400000
L200.906875 50.400000L200.906875 178.138750z"/>
</g>
<g id="line2d31">
<path style="fill: none; stroke: #0000ff; stroke-width: 1.000000; stroke-linejoin: round; stroke-linecap: square;  opacity: 1.000000"  d="M210.986875 61.760625L231.146875 61.760625"/>
</g>
<g id="line2d32">
</g>
<g id="text16">
<defs>
<path id="c_7efa9804c2b4c09a4b614b91fdebee3d" d="M31.000000 -75.875000q-6.531250 11.218750 -9.718750 22.218750q-3.171875 10.984375 -3.171875 22.265625q0.000000 11.265625 3.203125 22.328125q3.203125 11.062500 9.687500 22.250000l-7.812500 0.000000q-7.312500 -11.484375 -10.953125 -22.562500q-3.640625 -11.078125 -3.640625 -22.015625q0.000000 -10.890625 3.609375 -21.921875q3.625000 -11.046875 10.984375 -22.562500z"/>
<path id="c_e96974be642f6eac0427d72f9cec6c19" d="M8.015625 -75.875000l7.812500 0.000000q7.312500 11.515625 10.953125 22.562500q3.640625 11.031250 3.640625 21.921875q0.000000 10.937500 -3.640625 22.015625q-3.640625 11.078125 -10.953125 22.562500l-7.812500 0.000000q6.484375 -11.187500 9.687500 -22.250000q3.203125 -11.062500 3.203125 -22.328125q0.000000 -11.281250 -3.203125 -22.265625q-3.203125 -11.000000 -9.687500 -22.218750"/>
</defs>
<g style="fill: #000000; opacity: 1.000000" transform="translate(246.986875,66.800625)scale(0.144000)">
<use xlink:href="#c_73b12fe3945075d29fe0cc9a468fa31e"/>
<use xlink:href="#c_f05dd90d41f04bb96ef1ca503cc2044b" x="35.205078"/>
<use xlink:href="#c_5099edb83619131346ae654950954dea" x="96.386719"/>
<use xlink:href="#c_d821beae607506e87470f334d9ff47af" x="124.169922"/>
<use xlink:href="#c_d41d8cd98f00b204e9800998ecf8427e" x="187.646484"/>
<use xlink:href="#c_7a2040fe3b94fcd41d0a72c84e93b115" x="219.433594"/>
<use xlink:href="#c_d41d8cd98f00b204e9800998ecf8427e" x="283.056641"/>
<use xlink:href="#c_7efa9804c2b4c09a4b614b91fdebee3d" x="314.843750"/>
<use xlink:href="#c_01d93a582460e35a7945ca50d148ffeb" x="353.857422"/>
<use xlink:href="#c_6ec8d5749226675394676a5d2a3b468b" x="415.136719"/>
<use xlink:href="#c_0bce5afba2dc6b9024b26277c38ad8e8" x="454.000000"/>
<use xlink:href="#c_01d93a582460e35a7945ca50d148ffeb" x="515.523438"/>
<use xlink:href="#c_d41d8cd98f00b204e9800998ecf8427e" x="576.802734"/>
<use xlink:href="#c_8c0379a31aa3b07b28207e25658c6113" x="608.589844"/>
<use xlink:href="#c_d41d8cd98f00b204e9800998ecf8427e" x="692.378906"/>
<use xlink:href="#c_7a2040fe3b94fcd41d0a72c84e93b115" x="724.166016"/>
<use xlink:href="#c_ed3e21196fb739f392806f09ca0594ef" x="787.789062"/>
<use xlink:href="#c_ed3f3ed3ebfbd18bcb9c012009a68ad1" x="819.576172"/>
<use xlink:href="#c_7a2040fe3b94fcd41d0a72c84e93b115" x="883.199219"/>
<use xlink:href="#c_e96974be642f6eac0427d72f9cec6c19" x="946.822266"/>
</g>
</g>
<g id="line2d33">
<path style="fill: none; stroke: #008000; stroke-width: 1.000000; stroke-linejoin: round; stroke-linecap: square;  opacity: 1.000000"  d="M210.986875 82.507500L231.146875 82.507500"/>
</g>
<g id="line2d34">
</g>
<g id="text17">
<defs>
<path id="c_3dcfa38a02242cb63ec6726c6e70be7a" d="M40.578125 -39.312500q7.078125 1.515625 11.046875 6.312500q3.984375 4.781250 3.984375 11.812500q0.000000 10.781250 -7.421875 16.703125q-7.421875 5.906250 -21.093750 5.906250q-4.578125 0.000000 -9.437500 -0.906250q-4.859375 -0.906250 -10.031250 -2.718750l0.000000 -9.515625q4.093750 2.390625 8.968750 3.609375q4.890625 1.218750 10.218750 1.218750q9.265625 0.000000 14.125000 -3.656250q4.859375 -3.656250 4.859375 -10.640625q0.000000 -6.453125 -4.515625 -10.078125q-4.515625 -3.640625 -12.562500 -3.640625l-8.500000 0.000000l0.000000 -8.109375l8.890625 0.000000q7.265625 0.000000 11.125000 -2.906250q3.859375 -2.906250 3.859375 -8.375000q0.000000 -5.609375 -3.984375 -8.609375q-3.968750 -3.015625 -11.390625 -3.015625q-4.062500 0.000000 -8.703125 0.890625q-4.640625 0.875000 -10.203125 2.718750l0.000000 -8.781250q5.625000 -1.562500 10.531250 -2.343750q4.906250 -0.781250 9.250000 -0.781250q11.234375 0.000000 17.765625 5.109375q6.546875 5.093750 6.546875 13.781250q0.000000 6.062500 -3.468750 10.234375q-3.468750 4.171875 -9.859375 5.781250"/>
<path id="c_1260a2df50f305f3db244e29828f968e" d="M10.796875 -72.906250l38.718750 0.000000l0.000000 8.312500l-29.687500 0.000000l0.000000 17.859375q2.140625 -0.734375 4.281250 -1.093750q2.156250 -0.359375 4.312500 -0.359375q12.203125 0.000000 19.328125 6.687500q7.140625 6.687500 7.140625 18.109375q0.000000 11.765625 -7.328125 18.296875q-7.328125 6.515625 -20.656250 6.515625q-4.593750 0.000000 -9.359375 -0.781250q-4.750000 -0.781250 -9.828125 -2.343750l0.000000 -9.921875q4.390625 2.390625 9.078125 3.562500q4.687500 1.171875 9.906250 1.171875q8.453125 0.000000 13.375000 -4.437500q4.937500 -4.437500 4.937500 -12.062500q0.000000 -7.609375 -4.937500 -12.046875q-4.921875 -4.453125 -13.375000 -4.453125q-3.953125 0.000000 -7.890625 0.875000q-3.921875 0.875000 -8.015625 2.734375z"/>
</defs>
<g style="fill: #000000; opacity: 1.000000" transform="translate(246.986875,87.547500)scale(0.144000)">
<use xlink:href="#c_73b12fe3945075d29fe0cc9a468fa31e"/>
<use xlink:href="#c_f05dd90d41f04bb96ef1ca503cc2044b" x="35.205078"/>
<use xlink:href="#c_5099edb83619131346ae654950954dea" x="96.386719"/>
<use xlink:href="#c_d821beae607506e87470f334d9ff47af" x="124.169922"/>
<use xlink:href="#c_d41d8cd98f00b204e9800998ecf8427e" x="187.646484"/>
<use xlink:href="#c_42baa63129a918535c52adb20d687ea7" x="219.433594"/>
<use xlink:href="#c_d41d8cd98f00b204e9800998ecf8427e" x="283.056641"/>
<use xlink:href="#c_7efa9804c2b4c09a4b614b91fdebee3d" x="314.843750"/>
<use xlink:href="#c_01d93a582460e35a7945ca50d148ffeb" x="353.857422"/>
<use xlink:href="#c_6ec8d5749226675394676a5d2a3b468b" x="415.136719"/>
<use xlink:href="#c_0bce5afba2dc6b9024b26277c38ad8e8" x="454.000000"/>
<use xlink:href="#c_01d93a582460e35a7945ca50d148ffeb" x="515.523438"/>
<use xlink:href="#c_d41d8cd98f00b204e9800998ecf8427e" x="576.802734"/>
<use xlink:href="#c_8c0379a31aa3b07b28207e25658c6113" x="608.589844"/>
<use xlink:href="#c_d41d8cd98f00b204e9800998ecf8427e" x="692.378906"/>
<use xlink:href="#c_7a2040fe3b94fcd41d0a72c84e93b115" x="724.166016"/>
<use xlink:href="#c_ed3e21196fb739f392806f09ca0594ef" x="787.789062"/>
<use xlink:href="#c_3dcfa38a02242cb63ec6726c6e70be7a" x="819.576172"/>
<use xlink:href="#c_1260a2df50f305f3db244e29828f968e" x="883.199219"/>
<use xlink:href="#c_e96974be642f6eac0427d72f9cec6c19" x="946.822266"/>
</g>
</g>
<g id="line2d35">
<path style="fill: none; stroke: #ff0000; stroke-width: 1.000000; stroke-linejoin: round; stroke-linecap: square;  opacity: 1.000000"  d="M210.986875 103.254375L231.146875 103.254375"/>
</g>
<g id="line2d36">
</g>
<g id="text18">
<g style="fill: #000000; opacity: 1.000000" transform="translate(246.986875,108.294375)scale(0.144000)">
<use xlink:href="#c_73b12fe3945075d29fe0cc9a468fa31e"/>
<use xlink:href="#c_f05dd90d41f04bb96ef1ca503cc2044b" x="35.205078"/>
<use xlink:href="#c_5099edb83619131346ae654950954dea" x="96.386719"/>
<use xlink:href="#c_d821beae607506e87470f334d9ff47af" x="124.169922"/>
<use xlink:href="#c_d41d8cd98f00b204e9800998ecf8427e" x="187.646484"/>
<use xlink:href="#c_ed3f3ed3ebfbd18bcb9c012009a68ad1" x="219.433594"/>
<use xlink:href="#c_d41d8cd98f00b204e9800998ecf8427e" x="283.056641"/>
<use xlink:href="#c_7efa9804c2b4c09a4b614b91fdebee3d" x="314.843750"/>
<use xlink:href="#c_01d93a582460e35a7945ca50d148ffeb" x="353.857422"/>
<use xlink:href="#c_6ec8d5749226675394676a5d2a3b468b" x="415.136719"/>
<use xlink:href="#c_0bce5afba2dc6b9024b26277c38ad8e8" x="454.000000"/>
<use xlink:href="#c_01d93a582460e35a7945ca50d148ffeb" x="515.523438"/>
<use xlink:href="#c_d41d8cd98f00b204e9800998ecf8427e" x="576.802734"/>
<use xlink:href="#c_8c0379a31aa3b07b28207e25658c6113" x="608.589844"/>
<use xlink:href="#c_d41d8cd98f00b204e9800998ecf8427e" x="692.378906"/>
<use xlink:href="#c_7a2040fe3b94fcd41d0a72c84e93b115" x="724.166016"/>
<use xlink:href="#c_ed3e21196fb739f392806f09ca0594ef" x="787.789062"/>
<use xlink:href="#c_3dcfa38a02242cb63ec6726c6e70be7a" x="819.576172"/>
<use xlink:href="#c_42baa63129a918535c52adb20d687ea7" x="883.199219"/>
<use xlink:href="#c_e96974be642f6eac0427d72f9cec6c19" x="946.822266"/>
</g>
</g>
<g id="line2d37">
<path style="fill: none; stroke: #00bfbf; stroke-width: 1.000000; stroke-linejoin: round; stroke-linecap: square;  opacity: 1.000000"  d="M210.986875 124.001250L231.146875 124.001250"/>
</g>
<g id="line2d38">
</g>
<g id="text19">
<g style="fill: #000000; opacity: 1.000000" transform="translate(246.986875,129.041250)scale(0.144000)">
<use xlink:href="#c_73b12fe3945075d29fe0cc9a468fa31e"/>
<use xlink:href="#c_f05dd90d41f04bb96ef1ca503cc2044b" x="35.205078"/>
<use xlink:href="#c_5099edb83619131346ae654950954dea" x="96.386719"/>
<use xlink:href="#c_d821beae607506e87470f334d9ff47af" x="124.169922"/>
<use xlink:href="#c_d41d8cd98f00b204e9800998ecf8427e" x="187.646484"/>
<use xlink:href="#c_3dcfa38a02242cb63ec6726c6e70be7a" x="219.433594"/>
<use xlink:href="#c_d41d8cd98f00b204e9800998ecf8427e" x="283.056641"/>
<use xlink:href="#c_7efa9804c2b4c09a4b614b91fdebee3d" x="314.843750"/>
<use xlink:href="#c_01d93a582460e35a7945ca50d148ffeb" x="353.857422"/>
<use xlink:href="#c_6ec8d5749226675394676a5d2a3b468b" x="415.136719"/>
<use xlink:href="#c_0bce5afba2dc6b9024b26277c38ad8e8" x="454.000000"/>
<use xlink:href="#c_01d93a582460e35a7945ca50d148ffeb" x="515.523438"/>
<use xlink:href="#c_d41d8cd98f00b204e9800998ecf8427e" x="576.802734"/>
<use xlink:href="#c_8c0379a31aa3b07b28207e25658c6113" x="608.589844"/>
<use xlink:href="#c_d41d8cd98f00b204e9800998ecf8427e" x="692.378906"/>
<use xlink:href="#c_7a2040fe3b94fcd41d0a72c84e93b115" x="724.166016"/>
<use xlink:href="#c_ed3e21196fb739f392806f09ca0594ef" x="787.789062"/>
<use xlink:href="#c_3dcfa38a02242cb63ec6726c6e70be7a" x="819.576172"/>
<use xlink:href="#c_42baa63129a918535c52adb20d687ea7" x="883.199219"/>
<use xlink:href="#c_e96974be642f6eac0427d72f9cec6c19" x="946.822266"/>
</g>
</g>
<g id="line2d39">
<path style="fill: none; stroke: #bf00bf; stroke-width: 1.000000; stroke-linejoin: round; stroke-linecap: square;  opacity: 1.000000"  d="M210.986875 144.748125L231.146875 144.748125"/>
</g>
<g id="line2d40">
</g>
<g id="text20">
<defs>
<path id="c_956f18cfdaf972f35a6c2b4aaac2532b" d="M8.203125 -72.906250l46.875000 0.000000l0.000000 4.203125l-26.468750 68.703125l-10.296875 0.000000l24.906250 -64.593750l-35.015625 0.000000z"/>
</defs>
<g style="fill: #000000; opacity: 1.000000" transform="translate(246.986875,149.788125)scale(0.144000)">
<use xlink:href="#c_73b12fe3945075d29fe0cc9a468fa31e"/>
<use xlink:href="#c_f05dd90d41f04bb96ef1ca503cc2044b" x="35.205078"/>
<use xlink:href="#c_5099edb83619131346ae654950954dea" x="96.386719"/>
<use xlink:href="#c_d821beae607506e87470f334d9ff47af" x="124.169922"/>
<use xlink:href="#c_d41d8cd98f00b204e9800998ecf8427e" x="187.646484"/>
<use xlink:href="#c_a0416418d96557a09b8c1332d34883ba" x="219.433594"/>
<use xlink:href="#c_d41d8cd98f00b204e9800998ecf8427e" x="283.056641"/>
<use xlink:href="#c_7efa9804c2b4c09a4b614b91fdebee3d" x="314.843750"/>
<use xlink:href="#c_01d93a582460e35a7945ca50d148ffeb" x="353.857422"/>
<use xlink:href="#c_6ec8d5749226675394676a5d2a3b468b" x="415.136719"/>
<use xlink:href="#c_0bce5afba2dc6b9024b26277c38ad8e8" x="454.000000"/>
<use xlink:href="#c_01d93a582460e35a7945ca50d148ffeb" x="515.523438"/>
<use xlink:href="#c_d41d8cd98f00b204e9800998ecf8427e" x="576.802734"/>
<use xlink:href="#c_8c0379a31aa3b07b28207e25658c6113" x="608.589844"/>
<use xlink:href="#c_d41d8cd98f00b204e9800998ecf8427e" x="692.378906"/>
<use xlink:href="#c_7a2040fe3b94fcd41d0a72c84e93b115" x="724.166016"/>
<use xlink:href="#c_ed3e21196fb739f392806f09ca0594ef" x="787.789062"/>
<use xlink:href="#c_ed3f3ed3ebfbd18bcb9c012009a68ad1" x="819.576172"/>
<use xlink:href="#c_956f18cfdaf972f35a6c2b4aaac2532b" x="883.199219"/>
<use xlink:href="#c_e96974be642f6eac0427d72f9cec6c19" x="946.822266"/>
</g>
</g>
<g id="line2d41">
<path style="fill: none; stroke: #bfbf00; stroke-width: 2.000000; stroke-linejoin: round; stroke-linecap: square;  opacity: 1.000000"  d="M210.986875 165.495000L231.146875 165.495000"/>
</g>
<g id="line2d42">
</g>
<g id="text21">
<g style="fill: #000000; opacity: 1.000000" transform="translate(246.986875,170.535000)scale(0.144000)">
<use xlink:href="#c_9e4b30cbdf32072672ded72e9074c4c9"/>
<use xlink:href="#c_5d9b0d099c491f27a9f40b391fa98eef" x="61.083984"/>
<use xlink:href="#c_7b26b13f539f13a4c64eef23b6952d29" x="118.603516"/>
<use xlink:href="#c_5099edb83619131346ae654950954dea" x="154.687500"/>
<use xlink:href="#c_6a63bda47b2f3da1cec6aadd80692cfe" x="182.470703"/>
<use xlink:href="#c_fe791a90f5471e2ab20a5ed41a7fa451" x="210.253906"/>
<use xlink:href="#c_0bce5afba2dc6b9024b26277c38ad8e8" x="273.632812"/>
<use xlink:href="#c_01d93a582460e35a7945ca50d148ffeb" x="335.156250"/>
<use xlink:href="#c_6ec8d5749226675394676a5d2a3b468b" x="396.435547"/>
<use xlink:href="#c_b672e4bee30772019085dff1098f516d" x="437.548828"/>
<use xlink:href="#c_ae70b0af174184799fa4976b9c5da571" x="501.025391"/>
<use xlink:href="#c_a469f8ee191679fe73f3b765bd271597" x="569.433594"/>
<use xlink:href="#c_83c92fcf7184248154f741f54a0382f5" x="639.257812"/>
<use xlink:href="#c_d41d8cd98f00b204e9800998ecf8427e" x="671.044922"/>
<use xlink:href="#c_a469f8ee191679fe73f3b765bd271597" x="702.832031"/>
<use xlink:href="#c_8c0379a31aa3b07b28207e25658c6113" x="772.656250"/>
<use xlink:href="#c_ed3f3ed3ebfbd18bcb9c012009a68ad1" x="856.445312"/>
<use xlink:href="#c_2980d33c6bfe3d2427dc2327ab0525d7" x="920.068359"/>
<use xlink:href="#c_7b26b13f539f13a4c64eef23b6952d29" x="1003.857422"/>
<use xlink:href="#c_ed3f3ed3ebfbd18bcb9c012009a68ad1" x="1039.941406"/>
<use xlink:href="#c_d41d8cd98f00b204e9800998ecf8427e" x="1103.564453"/>
<use xlink:href="#c_7efa9804c2b4c09a4b614b91fdebee3d" x="1135.351563"/>
<use xlink:href="#c_01d93a582460e35a7945ca50d148ffeb" x="1174.365234"/>
<use xlink:href="#c_6ec8d5749226675394676a5d2a3b468b" x="1235.644531"/>
<use xlink:href="#c_0bce5afba2dc6b9024b26277c38ad8e8" x="1274.507812"/>
<use xlink:href="#c_01d93a582460e35a7945ca50d148ffeb" x="1336.031250"/>
<use xlink:href="#c_d41d8cd98f00b204e9800998ecf8427e" x="1397.310547"/>
<use xlink:href="#c_8c0379a31aa3b07b28207e25658c6113" x="1429.097656"/>
<use xlink:href="#c_d41d8cd98f00b204e9800998ecf8427e" x="1512.886719"/>
<use xlink:href="#c_7a2040fe3b94fcd41d0a72c84e93b115" x="1544.673828"/>
<use xlink:href="#c_ed3e21196fb739f392806f09ca0594ef" x="1608.296875"/>
<use xlink:href="#c_ed3f3ed3ebfbd18bcb9c012009a68ad1" x="1640.083984"/>
<use xlink:href="#c_cc8d6d580d1b10c8632f7a42cd53db8a" x="1703.707031"/>
<use xlink:href="#c_e96974be642f6eac0427d72f9cec6c19" x="1767.330078"/>
</g>
</g>
</g>
</g>
</g>
</svg>
